<svg width="55" height="56" viewBox="0 0 55 56" fill="none" xmlns="http://www.w3.org/2000/svg">
<g filter="url(#filter0_f_6_109)">
<path d="M11.8167 39.9574V47.4924C11.818 48.5301 12.2307 49.5249 12.9645 50.2586C13.6982 50.9923 14.693 51.4051 15.7306 51.4063H47.0489C48.0865 51.4051 49.0813 50.9923 49.815 50.2586C50.5488 49.5249 50.9615 48.5301 50.9627 47.4924V27.9229C50.9597 26.935 50.5826 25.9848 49.9072 25.2637C49.2319 24.5426 48.3085 24.1041 47.3228 24.0364C47.7175 23.2982 47.8656 22.453 47.7455 21.6246C47.6253 20.7961 47.2433 20.0278 46.6551 19.4321L36.6872 9.45795L36.6825 9.44934H36.6755L32.8156 5.58475C32.0818 4.85245 31.0875 4.44116 30.0508 4.44116C29.0141 4.44116 28.0198 4.85245 27.286 5.58475L5.13962 27.7398C4.40953 28.4774 4 29.4733 4 30.5112C4 31.549 4.40953 32.545 5.13962 33.2826L11.8167 39.9574ZM32.8101 7.79297L35.0214 10.0059L21.0261 24.009H16.5987L32.8101 7.79297ZM11.8238 33.2114L9.55371 35.4815L7.34157 33.2693L11.8238 28.784V33.2114ZM10.6606 36.5883L11.8238 35.4251V37.7515L10.6606 36.5883ZM49.3972 27.9229V47.4924C49.3972 48.1152 49.1498 48.7126 48.7094 49.153C48.269 49.5933 47.6717 49.8408 47.0489 49.8408H15.7377C15.1149 49.8408 14.5175 49.5933 14.0771 49.153C13.6367 48.7126 13.3893 48.1152 13.3893 47.4924V27.9229C13.3893 27.3001 13.6367 26.7028 14.0771 26.2624C14.5175 25.822 15.1149 25.5746 15.7377 25.5746H47.0489C47.6717 25.5746 48.269 25.822 48.7094 26.2624C49.1498 26.7028 49.3972 27.3001 49.3972 27.9229ZM45.5483 23.8627L45.405 24.009H23.239L36.1283 11.1135L45.5459 20.5366C45.9851 20.9785 46.2318 21.5761 46.2322 22.1992C46.2327 22.8222 45.9868 23.4201 45.5483 23.8627ZM6.24803 28.8443L28.3929 6.6916C28.8389 6.26539 29.4318 6.02715 30.0487 6.02628C30.6656 6.0254 31.2592 6.26196 31.7064 6.68691L13.9185 24.4787C13.2265 24.8454 12.6604 25.4112 12.2934 26.103L6.23629 32.1609C5.8037 31.7166 5.56262 31.1203 5.56482 30.5002C5.56701 29.8801 5.81231 29.2855 6.24803 28.8443Z" fill="#00FF6E"/>
<path d="M16.5205 34.1852H21.2172C21.6324 34.1852 22.0306 34.0202 22.3242 33.7266C22.6178 33.433 22.7827 33.0348 22.7827 32.6196V29.4885C22.7827 29.0733 22.6178 28.6751 22.3242 28.3815C22.0306 28.0879 21.6324 27.9229 21.2172 27.9229H16.5205C16.1053 27.9229 15.7071 28.0879 15.4135 28.3815C15.1199 28.6751 14.9549 29.0733 14.9549 29.4885V32.6196C14.9549 33.0348 15.1199 33.433 15.4135 33.7266C15.7071 34.0202 16.1053 34.1852 16.5205 34.1852ZM16.5205 29.4885H21.2172V32.6196H16.5205V29.4885Z" fill="#00FF6E"/>
<path d="M15.7377 38.8818C15.9453 38.8818 16.1444 38.7994 16.2912 38.6526C16.438 38.5058 16.5205 38.3067 16.5205 38.0991V36.5335C16.5205 36.3259 16.438 36.1268 16.2912 35.98C16.1444 35.8332 15.9453 35.7507 15.7377 35.7507C15.5301 35.7507 15.331 35.8332 15.1842 35.98C15.0374 36.1268 14.9549 36.3259 14.9549 36.5335V38.0991C14.9549 38.3067 15.0374 38.5058 15.1842 38.6526C15.331 38.7994 15.5301 38.8818 15.7377 38.8818Z" fill="#00FF6E"/>
<path d="M18.8688 35.7507C18.6612 35.7507 18.4621 35.8332 18.3153 35.98C18.1685 36.1268 18.086 36.3259 18.086 36.5335V38.0991C18.086 38.3067 18.1685 38.5058 18.3153 38.6526C18.4621 38.7994 18.6612 38.8818 18.8688 38.8818C19.0764 38.8818 19.2755 38.7994 19.4223 38.6526C19.5691 38.5058 19.6516 38.3067 19.6516 38.0991V36.5335C19.6516 36.3259 19.5691 36.1268 19.4223 35.98C19.2755 35.8332 19.0764 35.7507 18.8688 35.7507Z" fill="#00FF6E"/>
<path d="M21.2171 36.5335V38.0991C21.2171 38.3067 21.2996 38.5058 21.4464 38.6526C21.5932 38.7994 21.7923 38.8818 21.9999 38.8818C22.2075 38.8818 22.4066 38.7994 22.5534 38.6526C22.7002 38.5058 22.7827 38.3067 22.7827 38.0991V36.5335C22.7827 36.3259 22.7002 36.1268 22.5534 35.98C22.4066 35.8332 22.2075 35.7507 21.9999 35.7507C21.7923 35.7507 21.5932 35.8332 21.4464 35.98C21.2996 36.1268 21.2171 36.3259 21.2171 36.5335Z" fill="#00FF6E"/>
<path d="M25.131 35.7507C24.9234 35.7507 24.7243 35.8332 24.5775 35.98C24.4307 36.1268 24.3483 36.3259 24.3483 36.5335V38.0991C24.3483 38.3067 24.4307 38.5058 24.5775 38.6526C24.7243 38.7994 24.9234 38.8818 25.131 38.8818C25.3386 38.8818 25.5377 38.7994 25.6845 38.6526C25.8313 38.5058 25.9138 38.3067 25.9138 38.0991V36.5335C25.9138 36.3259 25.8313 36.1268 25.6845 35.98C25.5377 35.8332 25.3386 35.7507 25.131 35.7507Z" fill="#00FF6E"/>
<path d="M28.2622 38.8818C28.4698 38.8818 28.6689 38.7994 28.8157 38.6526C28.9625 38.5058 29.0449 38.3067 29.0449 38.0991V36.5335C29.0449 36.3259 28.9625 36.1268 28.8157 35.98C28.6689 35.8332 28.4698 35.7507 28.2622 35.7507C28.0545 35.7507 27.8554 35.8332 27.7086 35.98C27.5618 36.1268 27.4794 36.3259 27.4794 36.5335V38.0991C27.4794 38.3067 27.5618 38.5058 27.7086 38.6526C27.8554 38.7994 28.0545 38.8818 28.2622 38.8818Z" fill="#00FF6E"/>
<path d="M34.5244 35.7507C34.3168 35.7507 34.1177 35.8332 33.9709 35.98C33.8241 36.1268 33.7416 36.3259 33.7416 36.5335V38.0991C33.7416 38.3067 33.8241 38.5058 33.9709 38.6526C34.1177 38.7994 34.3168 38.8818 34.5244 38.8818C34.732 38.8818 34.9311 38.7994 35.0779 38.6526C35.2247 38.5058 35.3072 38.3067 35.3072 38.0991V36.5335C35.3072 36.3259 35.2247 36.1268 35.0779 35.98C34.9311 35.8332 34.732 35.7507 34.5244 35.7507Z" fill="#00FF6E"/>
<path d="M37.6555 35.7507C37.4479 35.7507 37.2488 35.8332 37.102 35.98C36.9552 36.1268 36.8727 36.3259 36.8727 36.5335V38.0991C36.8727 38.3067 36.9552 38.5058 37.102 38.6526C37.2488 38.7994 37.4479 38.8818 37.6555 38.8818C37.8631 38.8818 38.0622 38.7994 38.209 38.6526C38.3558 38.5058 38.4383 38.3067 38.4383 38.0991V36.5335C38.4383 36.3259 38.3558 36.1268 38.209 35.98C38.0622 35.8332 37.8631 35.7507 37.6555 35.7507Z" fill="#00FF6E"/>
<path d="M40.7866 35.7507C40.579 35.7507 40.3799 35.8332 40.2331 35.98C40.0863 36.1268 40.0038 36.3259 40.0038 36.5335V38.0991C40.0038 38.3067 40.0863 38.5058 40.2331 38.6526C40.3799 38.7994 40.579 38.8818 40.7866 38.8818C40.9942 38.8818 41.1933 38.7994 41.3401 38.6526C41.4869 38.5058 41.5694 38.3067 41.5694 38.0991V36.5335C41.5694 36.3259 41.4869 36.1268 41.3401 35.98C41.1933 35.8332 40.9942 35.7507 40.7866 35.7507Z" fill="#00FF6E"/>
<path d="M43.9177 35.7507C43.7101 35.7507 43.511 35.8332 43.3642 35.98C43.2174 36.1268 43.135 36.3259 43.135 36.5335V38.0991C43.135 38.3067 43.2174 38.5058 43.3642 38.6526C43.511 38.7994 43.7101 38.8818 43.9177 38.8818C44.1254 38.8818 44.3245 38.7994 44.4713 38.6526C44.6181 38.5058 44.7005 38.3067 44.7005 38.0991V36.5335C44.7005 36.3259 44.6181 36.1268 44.4713 35.98C44.3245 35.8332 44.1254 35.7507 43.9177 35.7507Z" fill="#00FF6E"/>
<path d="M18.8688 40.4474H15.7377C15.5301 40.4474 15.331 40.5299 15.1842 40.6767C15.0374 40.8235 14.9549 41.0226 14.9549 41.2302C14.9549 41.4378 15.0374 41.6369 15.1842 41.7837C15.331 41.9305 15.5301 42.0129 15.7377 42.0129H18.8688C19.0764 42.0129 19.2755 41.9305 19.4223 41.7837C19.5691 41.6369 19.6516 41.4378 19.6516 41.2302C19.6516 41.0226 19.5691 40.8235 19.4223 40.6767C19.2755 40.5299 19.0764 40.4474 18.8688 40.4474Z" fill="#00FF6E"/>
<path d="M25.131 40.4474H21.9999C21.7923 40.4474 21.5932 40.5299 21.4464 40.6767C21.2996 40.8235 21.2171 41.0226 21.2171 41.2302C21.2171 41.4378 21.2996 41.6369 21.4464 41.7837C21.5932 41.9305 21.7923 42.0129 21.9999 42.0129H25.131C25.3386 42.0129 25.5377 41.9305 25.6845 41.7837C25.8313 41.6369 25.9138 41.4378 25.9138 41.2302C25.9138 41.0226 25.8313 40.8235 25.6845 40.6767C25.5377 40.5299 25.3386 40.4474 25.131 40.4474Z" fill="#00FF6E"/>
<path d="M18.8688 43.5785H15.7377C15.5301 43.5785 15.331 43.661 15.1842 43.8078C15.0374 43.9546 14.9549 44.1537 14.9549 44.3613C14.9549 44.5689 15.0374 44.768 15.1842 44.9148C15.331 45.0616 15.5301 45.1441 15.7377 45.1441H18.8688C19.0764 45.1441 19.2755 45.0616 19.4223 44.9148C19.5691 44.768 19.6516 44.5689 19.6516 44.3613C19.6516 44.1537 19.5691 43.9546 19.4223 43.8078C19.2755 43.661 19.0764 43.5785 18.8688 43.5785Z" fill="#00FF6E"/>
<path d="M25.131 43.5785H21.9999C21.7923 43.5785 21.5932 43.661 21.4464 43.8078C21.2996 43.9546 21.2171 44.1537 21.2171 44.3613C21.2171 44.5689 21.2996 44.768 21.4464 44.9148C21.5932 45.0616 21.7923 45.1441 21.9999 45.1441H25.131C25.3386 45.1441 25.5377 45.0616 25.6845 44.9148C25.8313 44.768 25.9138 44.5689 25.9138 44.3613C25.9138 44.1537 25.8313 43.9546 25.6845 43.8078C25.5377 43.661 25.3386 43.5785 25.131 43.5785Z" fill="#00FF6E"/>
<path d="M31.3933 40.4474H28.2622C28.0546 40.4474 27.8554 40.5299 27.7086 40.6767C27.5618 40.8235 27.4794 41.0226 27.4794 41.2302C27.4794 41.4378 27.5618 41.6369 27.7086 41.7837C27.8554 41.9305 28.0546 42.0129 28.2622 42.0129H31.3933C31.6009 42.0129 31.8 41.9305 31.9468 41.7837C32.0936 41.6369 32.1761 41.4378 32.1761 41.2302C32.1761 41.0226 32.0936 40.8235 31.9468 40.6767C31.8 40.5299 31.6009 40.4474 31.3933 40.4474Z" fill="#00FF6E"/>
</g>
<path d="M11.8167 39.9574V47.4924C11.818 48.5301 12.2307 49.5249 12.9645 50.2586C13.6982 50.9923 14.693 51.4051 15.7306 51.4063H47.0489C48.0865 51.4051 49.0813 50.9923 49.815 50.2586C50.5488 49.5249 50.9615 48.5301 50.9627 47.4924V27.9229C50.9597 26.935 50.5826 25.9848 49.9072 25.2637C49.2319 24.5426 48.3085 24.1041 47.3228 24.0364C47.7175 23.2982 47.8656 22.453 47.7455 21.6246C47.6253 20.7961 47.2433 20.0278 46.6551 19.4321L36.6872 9.45795L36.6825 9.44934H36.6755L32.8156 5.58475C32.0818 4.85245 31.0875 4.44116 30.0508 4.44116C29.0141 4.44116 28.0198 4.85245 27.286 5.58475L5.13962 27.7398C4.40953 28.4774 4 29.4733 4 30.5112C4 31.549 4.40953 32.545 5.13962 33.2826L11.8167 39.9574ZM32.8101 7.79297L35.0214 10.0059L21.0261 24.009H16.5987L32.8101 7.79297ZM11.8238 33.2114L9.55371 35.4815L7.34157 33.2693L11.8238 28.784V33.2114ZM10.6606 36.5883L11.8238 35.4251V37.7515L10.6606 36.5883ZM49.3972 27.9229V47.4924C49.3972 48.1152 49.1498 48.7126 48.7094 49.153C48.269 49.5933 47.6717 49.8408 47.0489 49.8408H15.7377C15.1149 49.8408 14.5175 49.5933 14.0771 49.153C13.6367 48.7126 13.3893 48.1152 13.3893 47.4924V27.9229C13.3893 27.3001 13.6367 26.7028 14.0771 26.2624C14.5175 25.822 15.1149 25.5746 15.7377 25.5746H47.0489C47.6717 25.5746 48.269 25.822 48.7094 26.2624C49.1498 26.7028 49.3972 27.3001 49.3972 27.9229ZM45.5483 23.8627L45.405 24.009H23.239L36.1283 11.1135L45.5459 20.5366C45.9851 20.9785 46.2318 21.5761 46.2322 22.1992C46.2327 22.8222 45.9868 23.4201 45.5483 23.8627ZM6.24803 28.8443L28.3929 6.6916C28.8389 6.26539 29.4318 6.02715 30.0487 6.02628C30.6656 6.0254 31.2592 6.26196 31.7064 6.68691L13.9185 24.4787C13.2265 24.8454 12.6604 25.4112 12.2934 26.103L6.23629 32.1609C5.8037 31.7166 5.56262 31.1203 5.56482 30.5002C5.56701 29.8801 5.81231 29.2855 6.24803 28.8443Z" fill="#00FF6E"/>
<path d="M16.5205 34.1852H21.2172C21.6324 34.1852 22.0306 34.0202 22.3242 33.7266C22.6178 33.433 22.7827 33.0348 22.7827 32.6196V29.4885C22.7827 29.0733 22.6178 28.6751 22.3242 28.3815C22.0306 28.0879 21.6324 27.9229 21.2172 27.9229H16.5205C16.1053 27.9229 15.7071 28.0879 15.4135 28.3815C15.1199 28.6751 14.9549 29.0733 14.9549 29.4885V32.6196C14.9549 33.0348 15.1199 33.433 15.4135 33.7266C15.7071 34.0202 16.1053 34.1852 16.5205 34.1852ZM16.5205 29.4885H21.2172V32.6196H16.5205V29.4885Z" fill="#00FF6E"/>
<path d="M15.7377 38.8818C15.9453 38.8818 16.1444 38.7994 16.2912 38.6526C16.438 38.5058 16.5205 38.3067 16.5205 38.0991V36.5335C16.5205 36.3259 16.438 36.1268 16.2912 35.98C16.1444 35.8332 15.9453 35.7507 15.7377 35.7507C15.5301 35.7507 15.331 35.8332 15.1842 35.98C15.0374 36.1268 14.9549 36.3259 14.9549 36.5335V38.0991C14.9549 38.3067 15.0374 38.5058 15.1842 38.6526C15.331 38.7994 15.5301 38.8818 15.7377 38.8818Z" fill="#00FF6E"/>
<path d="M18.8688 35.7507C18.6612 35.7507 18.4621 35.8332 18.3153 35.98C18.1685 36.1268 18.086 36.3259 18.086 36.5335V38.0991C18.086 38.3067 18.1685 38.5058 18.3153 38.6526C18.4621 38.7994 18.6612 38.8818 18.8688 38.8818C19.0764 38.8818 19.2755 38.7994 19.4223 38.6526C19.5691 38.5058 19.6516 38.3067 19.6516 38.0991V36.5335C19.6516 36.3259 19.5691 36.1268 19.4223 35.98C19.2755 35.8332 19.0764 35.7507 18.8688 35.7507Z" fill="#00FF6E"/>
<path d="M21.2171 36.5335V38.0991C21.2171 38.3067 21.2996 38.5058 21.4464 38.6526C21.5932 38.7994 21.7923 38.8818 21.9999 38.8818C22.2075 38.8818 22.4066 38.7994 22.5534 38.6526C22.7002 38.5058 22.7827 38.3067 22.7827 38.0991V36.5335C22.7827 36.3259 22.7002 36.1268 22.5534 35.98C22.4066 35.8332 22.2075 35.7507 21.9999 35.7507C21.7923 35.7507 21.5932 35.8332 21.4464 35.98C21.2996 36.1268 21.2171 36.3259 21.2171 36.5335Z" fill="#00FF6E"/>
<path d="M25.131 35.7507C24.9234 35.7507 24.7243 35.8332 24.5775 35.98C24.4307 36.1268 24.3483 36.3259 24.3483 36.5335V38.0991C24.3483 38.3067 24.4307 38.5058 24.5775 38.6526C24.7243 38.7994 24.9234 38.8818 25.131 38.8818C25.3386 38.8818 25.5377 38.7994 25.6845 38.6526C25.8313 38.5058 25.9138 38.3067 25.9138 38.0991V36.5335C25.9138 36.3259 25.8313 36.1268 25.6845 35.98C25.5377 35.8332 25.3386 35.7507 25.131 35.7507Z" fill="#00FF6E"/>
<path d="M28.2622 38.8818C28.4698 38.8818 28.6689 38.7994 28.8157 38.6526C28.9625 38.5058 29.0449 38.3067 29.0449 38.0991V36.5335C29.0449 36.3259 28.9625 36.1268 28.8157 35.98C28.6689 35.8332 28.4698 35.7507 28.2622 35.7507C28.0545 35.7507 27.8554 35.8332 27.7086 35.98C27.5618 36.1268 27.4794 36.3259 27.4794 36.5335V38.0991C27.4794 38.3067 27.5618 38.5058 27.7086 38.6526C27.8554 38.7994 28.0545 38.8818 28.2622 38.8818Z" fill="#00FF6E"/>
<path d="M34.5244 35.7507C34.3168 35.7507 34.1177 35.8332 33.9709 35.98C33.8241 36.1268 33.7416 36.3259 33.7416 36.5335V38.0991C33.7416 38.3067 33.8241 38.5058 33.9709 38.6526C34.1177 38.7994 34.3168 38.8818 34.5244 38.8818C34.732 38.8818 34.9311 38.7994 35.0779 38.6526C35.2247 38.5058 35.3072 38.3067 35.3072 38.0991V36.5335C35.3072 36.3259 35.2247 36.1268 35.0779 35.98C34.9311 35.8332 34.732 35.7507 34.5244 35.7507Z" fill="#00FF6E"/>
<path d="M37.6555 35.7507C37.4479 35.7507 37.2488 35.8332 37.102 35.98C36.9552 36.1268 36.8727 36.3259 36.8727 36.5335V38.0991C36.8727 38.3067 36.9552 38.5058 37.102 38.6526C37.2488 38.7994 37.4479 38.8818 37.6555 38.8818C37.8631 38.8818 38.0622 38.7994 38.209 38.6526C38.3558 38.5058 38.4383 38.3067 38.4383 38.0991V36.5335C38.4383 36.3259 38.3558 36.1268 38.209 35.98C38.0622 35.8332 37.8631 35.7507 37.6555 35.7507Z" fill="#00FF6E"/>
<path d="M40.7866 35.7507C40.579 35.7507 40.3799 35.8332 40.2331 35.98C40.0863 36.1268 40.0038 36.3259 40.0038 36.5335V38.0991C40.0038 38.3067 40.0863 38.5058 40.2331 38.6526C40.3799 38.7994 40.579 38.8818 40.7866 38.8818C40.9942 38.8818 41.1933 38.7994 41.3401 38.6526C41.4869 38.5058 41.5694 38.3067 41.5694 38.0991V36.5335C41.5694 36.3259 41.4869 36.1268 41.3401 35.98C41.1933 35.8332 40.9942 35.7507 40.7866 35.7507Z" fill="#00FF6E"/>
<path d="M43.9177 35.7507C43.7101 35.7507 43.511 35.8332 43.3642 35.98C43.2174 36.1268 43.135 36.3259 43.135 36.5335V38.0991C43.135 38.3067 43.2174 38.5058 43.3642 38.6526C43.511 38.7994 43.7101 38.8818 43.9177 38.8818C44.1254 38.8818 44.3245 38.7994 44.4713 38.6526C44.6181 38.5058 44.7005 38.3067 44.7005 38.0991V36.5335C44.7005 36.3259 44.6181 36.1268 44.4713 35.98C44.3245 35.8332 44.1254 35.7507 43.9177 35.7507Z" fill="#00FF6E"/>
<path d="M18.8688 40.4474H15.7377C15.5301 40.4474 15.331 40.5299 15.1842 40.6767C15.0374 40.8235 14.9549 41.0226 14.9549 41.2302C14.9549 41.4378 15.0374 41.6369 15.1842 41.7837C15.331 41.9305 15.5301 42.0129 15.7377 42.0129H18.8688C19.0764 42.0129 19.2755 41.9305 19.4223 41.7837C19.5691 41.6369 19.6516 41.4378 19.6516 41.2302C19.6516 41.0226 19.5691 40.8235 19.4223 40.6767C19.2755 40.5299 19.0764 40.4474 18.8688 40.4474Z" fill="#00FF6E"/>
<path d="M25.131 40.4474H21.9999C21.7923 40.4474 21.5932 40.5299 21.4464 40.6767C21.2996 40.8235 21.2171 41.0226 21.2171 41.2302C21.2171 41.4378 21.2996 41.6369 21.4464 41.7837C21.5932 41.9305 21.7923 42.0129 21.9999 42.0129H25.131C25.3386 42.0129 25.5377 41.9305 25.6845 41.7837C25.8313 41.6369 25.9138 41.4378 25.9138 41.2302C25.9138 41.0226 25.8313 40.8235 25.6845 40.6767C25.5377 40.5299 25.3386 40.4474 25.131 40.4474Z" fill="#00FF6E"/>
<path d="M18.8688 43.5785H15.7377C15.5301 43.5785 15.331 43.661 15.1842 43.8078C15.0374 43.9546 14.9549 44.1537 14.9549 44.3613C14.9549 44.5689 15.0374 44.768 15.1842 44.9148C15.331 45.0616 15.5301 45.1441 15.7377 45.1441H18.8688C19.0764 45.1441 19.2755 45.0616 19.4223 44.9148C19.5691 44.768 19.6516 44.5689 19.6516 44.3613C19.6516 44.1537 19.5691 43.9546 19.4223 43.8078C19.2755 43.661 19.0764 43.5785 18.8688 43.5785Z" fill="#00FF6E"/>
<path d="M25.131 43.5785H21.9999C21.7923 43.5785 21.5932 43.661 21.4464 43.8078C21.2996 43.9546 21.2171 44.1537 21.2171 44.3613C21.2171 44.5689 21.2996 44.768 21.4464 44.9148C21.5932 45.0616 21.7923 45.1441 21.9999 45.1441H25.131C25.3386 45.1441 25.5377 45.0616 25.6845 44.9148C25.8313 44.768 25.9138 44.5689 25.9138 44.3613C25.9138 44.1537 25.8313 43.9546 25.6845 43.8078C25.5377 43.661 25.3386 43.5785 25.131 43.5785Z" fill="#00FF6E"/>
<path d="M31.3933 40.4474H28.2622C28.0546 40.4474 27.8554 40.5299 27.7086 40.6767C27.5618 40.8235 27.4794 41.0226 27.4794 41.2302C27.4794 41.4378 27.5618 41.6369 27.7086 41.7837C27.8554 41.9305 28.0546 42.0129 28.2622 42.0129H31.3933C31.6009 42.0129 31.8 41.9305 31.9468 41.7837C32.0936 41.6369 32.1761 41.4378 32.1761 41.2302C32.1761 41.0226 32.0936 40.8235 31.9468 40.6767C31.8 40.5299 31.6009 40.4474 31.3933 40.4474Z" fill="#00FF6E"/>
<defs>
<filter id="filter0_f_6_109" x="0" y="0.441162" width="54.9627" height="54.9652" filterUnits="userSpaceOnUse" color-interpolation-filters="sRGB">
<feFlood flood-opacity="0" result="BackgroundImageFix"/>
<feBlend mode="normal" in="SourceGraphic" in2="BackgroundImageFix" result="shape"/>
<feGaussianBlur stdDeviation="2" result="effect1_foregroundBlur_6_109"/>
</filter>
</defs>
</svg>
