<svg width="40" height="40" viewBox="0 0 40 40" fill="none" xmlns="http://www.w3.org/2000/svg">
<g filter="url(#filter0_b_17_4493)">
<rect width="40" height="40" fill="url(#paint0_linear_17_4493)" fill-opacity="0.2"/>
<path d="M26.9308 13.4629C25.6561 12.878 24.2892 12.4471 22.8599 12.2003C22.8339 12.1955 22.8079 12.2074 22.7945 12.2312C22.6187 12.5439 22.4239 12.9518 22.2876 13.2724C20.7503 13.0423 19.221 13.0423 17.7153 13.2724C17.5789 12.9447 17.3771 12.5439 17.2005 12.2312C17.1871 12.2082 17.1611 12.1963 17.135 12.2003C15.7066 12.4463 14.3396 12.8772 13.0641 13.4629C13.0531 13.4677 13.0436 13.4756 13.0373 13.4859C10.4445 17.3595 9.73421 21.138 10.0827 24.8695C10.0842 24.8878 10.0945 24.9053 10.1087 24.9164C11.8193 26.1726 13.4764 26.9353 15.1027 27.4408C15.1288 27.4488 15.1563 27.4393 15.1729 27.4178C15.5576 26.8925 15.9005 26.3385 16.1946 25.756C16.2119 25.7219 16.1954 25.6814 16.1599 25.6679C15.6159 25.4616 15.098 25.21 14.5998 24.9243C14.5604 24.9013 14.5572 24.8449 14.5935 24.8179C14.6983 24.7394 14.8032 24.6576 14.9033 24.5751C14.9214 24.56 14.9466 24.5568 14.9679 24.5664C18.2411 26.0608 21.7846 26.0608 25.0191 24.5664C25.0404 24.5561 25.0657 24.5592 25.0846 24.5743C25.1847 24.6568 25.2895 24.7394 25.3952 24.8179C25.4314 24.8449 25.4291 24.9013 25.3897 24.9243C24.8914 25.2155 24.3735 25.4616 23.8288 25.6671C23.7933 25.6806 23.7775 25.7219 23.7949 25.756C24.0952 26.3377 24.4381 26.8917 24.8157 27.417C24.8315 27.4393 24.8599 27.4488 24.8859 27.4408C26.5201 26.9353 28.1772 26.1726 29.8879 24.9164C29.9028 24.9053 29.9123 24.8886 29.9139 24.8703C30.3309 20.5562 29.2154 16.8088 26.9568 13.4867C26.9513 13.4756 26.9419 13.4677 26.9308 13.4629ZM16.6834 22.5974C15.6979 22.5974 14.8859 21.6927 14.8859 20.5816C14.8859 19.4706 15.6822 18.5659 16.6834 18.5659C17.6924 18.5659 18.4965 19.4785 18.4807 20.5816C18.4807 21.6927 17.6845 22.5974 16.6834 22.5974ZM23.329 22.5974C22.3435 22.5974 21.5316 21.6927 21.5316 20.5816C21.5316 19.4706 22.3278 18.5659 23.329 18.5659C24.338 18.5659 25.1421 19.4785 25.1264 20.5816C25.1264 21.6927 24.338 22.5974 23.329 22.5974Z" fill="white"/>
<rect x="1" y="1" width="38" height="38" stroke="url(#paint1_linear_17_4493)" stroke-opacity="0.4" stroke-width="2"/>
</g>
<defs>
<filter id="filter0_b_17_4493" x="-14" y="-14" width="68" height="68" filterUnits="userSpaceOnUse" color-interpolation-filters="sRGB">
<feFlood flood-opacity="0" result="BackgroundImageFix"/>
<feGaussianBlur in="BackgroundImage" stdDeviation="7"/>
<feComposite in2="SourceAlpha" operator="in" result="effect1_backgroundBlur_17_4493"/>
<feBlend mode="normal" in="SourceGraphic" in2="effect1_backgroundBlur_17_4493" result="shape"/>
</filter>
<linearGradient id="paint0_linear_17_4493" x1="-0.583333" y1="20" x2="40" y2="20" gradientUnits="userSpaceOnUse">
<stop stop-color="white"/>
<stop offset="1" stop-color="white" stop-opacity="0.24"/>
</linearGradient>
<linearGradient id="paint1_linear_17_4493" x1="0" y1="0" x2="40" y2="40" gradientUnits="userSpaceOnUse">
<stop stop-color="white" stop-opacity="0"/>
<stop offset="1" stop-color="white"/>
</linearGradient>
</defs>
</svg>
