<svg width="63" height="64" viewBox="0 0 63 64" fill="none" xmlns="http://www.w3.org/2000/svg">
<g filter="url(#filter0_f_6_106)">
<path d="M31.696 4.50391C29.8406 4.50391 28.3312 6.0133 28.3312 7.86869C28.3312 9.72408 29.8406 11.2336 31.696 11.2336C33.5514 11.2336 35.0608 9.72418 35.0608 7.86879C35.0608 6.01341 33.5514 4.50391 31.696 4.50391ZM31.696 9.63374C30.7228 9.63374 29.9311 8.84203 29.9311 7.86879C29.9311 6.89556 30.7228 6.10375 31.696 6.10375C32.6692 6.10375 33.461 6.89545 33.461 7.86869C33.461 8.84192 32.6692 9.63374 31.696 9.63374Z" fill="#00FF6E"/>
<path d="M7.75698 28.443C5.90159 28.443 4.39209 29.9524 4.39209 31.8078C4.39209 33.6632 5.90149 35.1726 7.75687 35.1726C9.61226 35.1726 11.1218 33.6632 11.1218 31.8078C11.1218 29.9524 9.61237 28.443 7.75698 28.443ZM7.75698 33.5728C6.78374 33.5728 5.99193 32.7811 5.99193 31.8078C5.99193 30.8346 6.78364 30.0429 7.75687 30.0429C8.73011 30.0429 9.52192 30.8346 9.52192 31.8078C9.52192 32.7811 8.73021 33.5728 7.75698 33.5728Z" fill="#00FF6E"/>
<path d="M55.6352 28.443C53.7798 28.443 52.2704 29.9524 52.2704 31.8078C52.2704 33.6632 53.7798 35.1726 55.6352 35.1726C57.4905 35.1726 58.9999 33.6632 58.9999 31.8078C58.9999 29.9524 57.4905 28.443 55.6352 28.443ZM55.6352 33.5728C54.6619 33.5728 53.8702 32.7811 53.8702 31.8078C53.8702 30.8346 54.6619 30.0429 55.6352 30.0429C56.6084 30.0429 57.4001 30.8346 57.4001 31.8078C57.4001 32.7811 56.6084 33.5728 55.6352 33.5728Z" fill="#00FF6E"/>
<path d="M31.696 52.3821C29.8406 52.3821 28.3312 53.8915 28.3312 55.7469C28.3312 57.6022 29.8406 59.1117 31.696 59.1117C33.5514 59.1117 35.0608 57.6024 35.0608 55.747C35.0608 53.8916 33.5514 52.3821 31.696 52.3821ZM31.696 57.5119C30.7228 57.5119 29.9311 56.7202 29.9311 55.747C29.9311 54.7737 30.7228 53.982 31.696 53.982C32.6692 53.982 33.461 54.7737 33.461 55.747C33.461 56.7202 32.6692 57.5119 31.696 57.5119Z" fill="#00FF6E"/>
<path d="M55.6553 25.6223C53.4106 16.9031 46.5997 10.0925 37.8805 7.84822C37.4527 7.73804 37.0164 7.99562 36.9064 8.42352C36.7962 8.85143 37.0538 9.28754 37.4816 9.39761C45.6365 11.4966 52.0066 17.8664 54.1059 26.0212C54.1988 26.3821 54.5238 26.6219 54.88 26.6219C54.9461 26.6219 55.0131 26.6137 55.08 26.5964C55.5079 26.4862 55.7654 26.0501 55.6553 25.6223Z" fill="#00FF6E"/>
<path d="M26.4858 8.42362C26.3757 7.99571 25.9393 7.73814 25.5117 7.84831C16.7919 10.0927 9.98088 16.9037 7.73652 25.6234C7.62635 26.0513 7.88392 26.4874 8.31172 26.5975C8.37859 26.6147 8.44568 26.623 8.5117 26.623C8.86793 26.623 9.19291 26.3831 9.28581 26.0223C11.3849 17.867 17.7551 11.4968 25.9105 9.3977C26.3383 9.28764 26.5959 8.85152 26.4858 8.42362Z" fill="#00FF6E"/>
<path d="M25.9108 54.2182C17.7561 52.1193 11.3861 45.75 9.28632 37.5956C9.17614 37.1677 8.73981 36.9106 8.31223 37.0204C7.88443 37.1306 7.62686 37.5667 7.73703 37.9945C9.98204 46.7132 16.793 53.5234 25.512 55.7675C25.5789 55.7847 25.646 55.7929 25.712 55.7929C26.0682 55.7929 26.3932 55.5532 26.4861 55.1923C26.5963 54.7644 26.3387 54.3282 25.9108 54.2182Z" fill="#00FF6E"/>
<path d="M55.0803 37.0182C54.6525 36.908 54.2163 37.1656 54.1062 37.5935C52.0072 45.7488 45.6369 52.119 37.4817 54.2182C37.0539 54.3282 36.7963 54.7643 36.9064 55.1922C36.9993 55.5532 37.3241 55.7929 37.6805 55.7929C37.7465 55.7929 37.8136 55.7847 37.8805 55.7674C46.6001 53.523 53.4112 46.7119 55.6555 37.9922C55.7657 37.5644 55.5081 37.1283 55.0803 37.0182Z" fill="#00FF6E"/>
<path d="M28.3147 21.6892L27.5666 20.193C27.3691 19.7978 26.8887 19.6375 26.4935 19.8353C26.0983 20.0328 25.9381 20.5133 26.1357 20.9085L26.8838 22.4046C27.024 22.6849 27.3064 22.8469 27.5999 22.8469C27.7201 22.8469 27.8421 22.8197 27.957 22.7624C28.3522 22.5648 28.5124 22.0843 28.3147 21.6892Z" fill="#00FF6E"/>
<path d="M35.8543 22.6437L35.4639 22.2876C35.1376 21.9899 34.6317 22.0131 34.3338 22.3394C34.036 22.6657 34.0593 23.1717 34.3855 23.4695L34.776 23.8257C34.9294 23.9656 35.1225 24.0346 35.3149 24.0346C35.532 24.0346 35.7483 23.9469 35.906 23.7739C36.2038 23.4475 36.1806 22.9415 35.8543 22.6437Z" fill="#00FF6E"/>
<path d="M42.5004 20.9489C36.5214 14.97 26.7931 14.9699 20.8142 20.9489C15.3193 26.4438 14.806 35.1837 19.6202 41.2788C19.8941 41.6254 20.3971 41.6844 20.7438 41.4107C21.0904 41.1368 21.1495 40.6338 20.8757 40.2871C19.0307 37.9512 18.0602 35.1815 17.9386 32.3913L19.2709 33.9616C19.5971 34.3459 20.0129 34.657 20.4737 34.8611L23.7461 36.3109L22.8068 37.6896C22.4043 38.2803 22.479 39.076 22.9846 39.5816L24.8399 41.437V43.7086C24.2612 43.376 23.7001 42.9982 23.1621 42.5734C22.8154 42.2997 22.3124 42.3587 22.0386 42.7053C21.7647 43.0519 21.8238 43.555 22.1704 43.8289C24.9661 46.0371 28.3178 47.1243 31.6579 47.1243C35.5999 47.1243 39.5258 45.6093 42.5004 42.6349C48.4793 36.656 48.4793 26.9277 42.5004 20.9489ZM33.415 18.1766L33.2152 19.4115C33.1809 19.6242 33.0717 19.8183 32.9079 19.9581L31.0993 21.5025L29.919 18.174C31.0794 18.0272 32.2549 18.0281 33.415 18.1766ZM20.3649 32.0466L20.1317 32.5032L18.0373 30.0349C18.4123 27.1146 19.7243 24.3013 21.9456 22.0801C22.4864 21.5393 23.0619 21.0541 23.6642 20.6226C23.7599 20.7545 23.8193 20.9097 23.8339 21.0772C23.8554 21.3268 23.7762 21.568 23.6107 21.7562L22.381 23.1557C22.0518 23.5303 21.9099 24.0272 21.9916 24.5192C22.0733 25.0112 22.3682 25.4356 22.8008 25.6836L23.4645 26.0643C23.8796 26.3023 24.3772 26.3491 24.8295 26.1925C25.2817 26.0358 25.6438 25.6913 25.8227 25.2472L25.9164 25.0145C25.9204 25.0047 25.9277 24.9864 25.9574 24.9809C25.9872 24.9751 26.0005 24.9897 26.0077 24.9974L27.1663 26.2354C27.1856 26.256 27.1863 26.2876 27.1678 26.309L23.0908 31.0203C23.0813 31.0313 23.0681 31.038 23.0536 31.0392L21.7036 31.1499C21.128 31.197 20.6276 31.5322 20.3649 32.0466ZM26.4399 44.4941V41.1056C26.4399 40.8934 26.3556 40.6899 26.2056 40.54L24.1804 38.5148L25.5544 36.4979C25.5711 36.4735 25.6039 36.4666 25.6291 36.4821L29.3636 38.8018C29.7594 39.0476 29.9056 39.5497 29.7036 39.9695L27.3618 44.8351C27.0516 44.7328 26.744 44.6193 26.4399 44.4941ZM28.9367 45.2518L31.1451 40.6633C31.7024 39.5054 31.2995 38.1209 30.2078 37.4428L26.4733 35.1231C25.966 34.8081 25.3564 34.7996 24.8585 35.0495L21.4065 33.5241L21.7895 32.7741C21.7981 32.7573 21.8151 32.7458 21.8339 32.7443L23.184 32.6336C23.6185 32.5979 24.0149 32.3968 24.3003 32.0671L28.3774 27.3558C28.933 26.7137 28.9145 25.762 28.3343 25.142L27.1757 23.9041C26.7875 23.4892 26.2221 23.304 25.6636 23.4081C25.1052 23.5124 24.6449 23.8894 24.4324 24.4165L24.3388 24.6492C24.3362 24.6556 24.3294 24.6724 24.3057 24.6806C24.2818 24.6889 24.2661 24.6798 24.2603 24.6764L23.5965 24.2957C23.5898 24.2919 23.5739 24.2827 23.5697 24.257C23.5654 24.2313 23.5775 24.2175 23.5827 24.2117L24.8124 22.8122C25.2687 22.293 25.4871 21.6279 25.4276 20.9393C25.3907 20.5121 25.2497 20.1122 25.0195 19.7667C26.0717 19.1865 27.1845 18.7545 28.3268 18.4709L29.7685 22.5364C29.9045 22.92 30.2203 23.2118 30.6134 23.3169C30.7189 23.3452 30.8263 23.3591 30.9331 23.3591C31.2238 23.3591 31.509 23.2564 31.7353 23.0631L33.9468 21.1745C34.3986 20.7887 34.6996 20.2531 34.7945 19.6667L34.9879 18.4709C36.5496 18.8586 38.0558 19.5237 39.4277 20.4658L38.4102 21.9509C38.1605 22.3153 38.2535 22.8132 38.618 23.0629C38.7562 23.1576 38.9136 23.2029 39.0693 23.2029C39.3244 23.2029 39.575 23.0813 39.73 22.8551L40.6934 21.449C40.9238 21.6506 41.1496 21.8602 41.3692 22.0798C41.5483 22.2592 41.7213 22.4428 41.8893 22.6299L37.4546 25.0009C36.9478 25.2719 36.6222 25.7759 36.5837 26.3492L36.5033 27.5437L35.9189 28.5588C35.6985 28.9417 35.8301 29.4307 36.213 29.6511C36.2977 29.7 36.3877 29.7301 36.4787 29.7454C36.0482 29.9501 35.6841 30.2738 35.4278 30.6865L34.1976 32.6673C33.7363 33.4099 33.6969 34.3548 34.0947 35.1334L35.045 36.9935C35.3746 37.6387 36.0761 37.9919 36.7907 37.8731L38.2835 37.6243C38.2893 37.6233 38.3068 37.6205 38.3255 37.6345C38.3444 37.6486 38.3465 37.6662 38.3472 37.6721L39.0343 43.3782C36.0091 45.3061 32.375 45.9463 28.9367 45.2518ZM37.7911 28.5134L39.7484 28.2068C39.9618 28.1735 40.1804 28.217 40.3644 28.3297L41.9758 29.3158L42.3474 30.3413L40.4009 30.1856C40.3856 30.1843 40.3714 30.1766 40.3619 30.1645L40.0823 29.8033C39.6775 29.2807 39.0024 29.0491 38.3622 29.2136L37.1841 29.5161C37.2298 29.4692 37.271 29.4166 37.3053 29.3572L37.7911 28.5134ZM41.3692 41.5036C41.0932 41.7795 40.8077 42.0406 40.5145 42.2884L39.9356 37.4809C39.8818 37.0344 39.6445 36.6237 39.2847 36.3541C38.9248 36.0846 38.4642 35.9724 38.0205 36.0463L36.5277 36.2952C36.5039 36.2991 36.4807 36.2874 36.4697 36.2659L35.5193 34.4056C35.3751 34.1234 35.3894 33.7808 35.5566 33.5115L36.7868 31.5308C36.9112 31.3306 37.1053 31.1882 37.3335 31.1295L38.76 30.7632C38.7814 30.7576 38.8039 30.7655 38.8173 30.7829L39.097 31.144C39.3814 31.5115 39.8103 31.7435 40.2735 31.7805L43.05 32.0027L44.9706 35.1889C44.3706 37.5577 43.1423 39.7304 41.3692 41.5036ZM44.2483 30.8916L43.6362 29.2022L43.9431 29.0627C44.3453 28.8799 44.5231 28.4057 44.3403 28.0035C44.1576 27.6013 43.6833 27.4235 43.2811 27.6063L42.6879 27.8759L41.1992 26.965C40.6918 26.6545 40.0885 26.5343 39.5008 26.6263L38.1542 26.8372L38.1798 26.4568C38.1811 26.4377 38.192 26.4209 38.2087 26.412L42.9036 23.9018C44.5206 26.1963 45.3919 28.9273 45.3919 31.792C45.3919 32.108 45.3806 32.4224 45.3595 32.7349L44.2483 30.8916Z" fill="#00FF6E"/>
</g>
<path d="M31.696 4.50391C29.8406 4.50391 28.3312 6.0133 28.3312 7.86869C28.3312 9.72408 29.8406 11.2336 31.696 11.2336C33.5514 11.2336 35.0608 9.72418 35.0608 7.86879C35.0608 6.01341 33.5514 4.50391 31.696 4.50391ZM31.696 9.63374C30.7228 9.63374 29.9311 8.84203 29.9311 7.86879C29.9311 6.89556 30.7228 6.10375 31.696 6.10375C32.6692 6.10375 33.461 6.89545 33.461 7.86869C33.461 8.84192 32.6692 9.63374 31.696 9.63374Z" fill="#00FF6E"/>
<path d="M7.75698 28.443C5.90159 28.443 4.39209 29.9524 4.39209 31.8078C4.39209 33.6632 5.90149 35.1726 7.75687 35.1726C9.61226 35.1726 11.1218 33.6632 11.1218 31.8078C11.1218 29.9524 9.61237 28.443 7.75698 28.443ZM7.75698 33.5728C6.78374 33.5728 5.99193 32.7811 5.99193 31.8078C5.99193 30.8346 6.78364 30.0429 7.75687 30.0429C8.73011 30.0429 9.52192 30.8346 9.52192 31.8078C9.52192 32.7811 8.73021 33.5728 7.75698 33.5728Z" fill="#00FF6E"/>
<path d="M55.6352 28.443C53.7798 28.443 52.2704 29.9524 52.2704 31.8078C52.2704 33.6632 53.7798 35.1726 55.6352 35.1726C57.4905 35.1726 58.9999 33.6632 58.9999 31.8078C58.9999 29.9524 57.4905 28.443 55.6352 28.443ZM55.6352 33.5728C54.6619 33.5728 53.8702 32.7811 53.8702 31.8078C53.8702 30.8346 54.6619 30.0429 55.6352 30.0429C56.6084 30.0429 57.4001 30.8346 57.4001 31.8078C57.4001 32.7811 56.6084 33.5728 55.6352 33.5728Z" fill="#00FF6E"/>
<path d="M31.696 52.3821C29.8406 52.3821 28.3312 53.8915 28.3312 55.7469C28.3312 57.6022 29.8406 59.1117 31.696 59.1117C33.5514 59.1117 35.0608 57.6024 35.0608 55.747C35.0608 53.8916 33.5514 52.3821 31.696 52.3821ZM31.696 57.5119C30.7228 57.5119 29.9311 56.7202 29.9311 55.747C29.9311 54.7737 30.7228 53.982 31.696 53.982C32.6692 53.982 33.461 54.7737 33.461 55.747C33.461 56.7202 32.6692 57.5119 31.696 57.5119Z" fill="#00FF6E"/>
<path d="M55.6553 25.6223C53.4106 16.9031 46.5997 10.0925 37.8805 7.84822C37.4527 7.73804 37.0164 7.99562 36.9064 8.42352C36.7962 8.85143 37.0538 9.28754 37.4816 9.39761C45.6365 11.4966 52.0066 17.8664 54.1059 26.0212C54.1988 26.3821 54.5238 26.6219 54.88 26.6219C54.9461 26.6219 55.0131 26.6137 55.08 26.5964C55.5079 26.4862 55.7654 26.0501 55.6553 25.6223Z" fill="#00FF6E"/>
<path d="M26.4858 8.42362C26.3757 7.99571 25.9393 7.73814 25.5117 7.84831C16.7919 10.0927 9.98088 16.9037 7.73652 25.6234C7.62635 26.0513 7.88392 26.4874 8.31172 26.5975C8.37859 26.6147 8.44568 26.623 8.5117 26.623C8.86793 26.623 9.19291 26.3831 9.28581 26.0223C11.3849 17.867 17.7551 11.4968 25.9105 9.3977C26.3383 9.28764 26.5959 8.85152 26.4858 8.42362Z" fill="#00FF6E"/>
<path d="M25.9108 54.2182C17.7561 52.1193 11.3861 45.75 9.28632 37.5956C9.17614 37.1677 8.73981 36.9106 8.31223 37.0204C7.88443 37.1306 7.62686 37.5667 7.73703 37.9945C9.98204 46.7132 16.793 53.5234 25.512 55.7675C25.5789 55.7847 25.646 55.7929 25.712 55.7929C26.0682 55.7929 26.3932 55.5532 26.4861 55.1923C26.5963 54.7644 26.3387 54.3282 25.9108 54.2182Z" fill="#00FF6E"/>
<path d="M55.0803 37.0182C54.6525 36.908 54.2163 37.1656 54.1062 37.5935C52.0072 45.7488 45.6369 52.119 37.4817 54.2182C37.0539 54.3282 36.7963 54.7643 36.9064 55.1922C36.9993 55.5532 37.3241 55.7929 37.6805 55.7929C37.7465 55.7929 37.8136 55.7847 37.8805 55.7674C46.6001 53.523 53.4112 46.7119 55.6555 37.9922C55.7657 37.5644 55.5081 37.1283 55.0803 37.0182Z" fill="#00FF6E"/>
<path d="M28.3147 21.6892L27.5666 20.193C27.3691 19.7978 26.8887 19.6375 26.4935 19.8353C26.0983 20.0328 25.9381 20.5133 26.1357 20.9085L26.8838 22.4046C27.024 22.6849 27.3064 22.8469 27.5999 22.8469C27.7201 22.8469 27.8421 22.8197 27.957 22.7624C28.3522 22.5648 28.5124 22.0843 28.3147 21.6892Z" fill="#00FF6E"/>
<path d="M35.8543 22.6437L35.4639 22.2876C35.1376 21.9899 34.6317 22.0131 34.3338 22.3394C34.036 22.6657 34.0593 23.1717 34.3855 23.4695L34.776 23.8257C34.9294 23.9656 35.1225 24.0346 35.3149 24.0346C35.532 24.0346 35.7483 23.9469 35.906 23.7739C36.2038 23.4475 36.1806 22.9415 35.8543 22.6437Z" fill="#00FF6E"/>
<path d="M42.5004 20.9489C36.5214 14.97 26.7931 14.9699 20.8142 20.9489C15.3193 26.4438 14.806 35.1837 19.6202 41.2788C19.8941 41.6254 20.3971 41.6844 20.7438 41.4107C21.0904 41.1368 21.1495 40.6338 20.8757 40.2871C19.0307 37.9512 18.0602 35.1815 17.9386 32.3913L19.2709 33.9616C19.5971 34.3459 20.0129 34.657 20.4737 34.8611L23.7461 36.3109L22.8068 37.6896C22.4043 38.2803 22.479 39.076 22.9846 39.5816L24.8399 41.437V43.7086C24.2612 43.376 23.7001 42.9982 23.1621 42.5734C22.8154 42.2997 22.3124 42.3587 22.0386 42.7053C21.7647 43.0519 21.8238 43.555 22.1704 43.8289C24.9661 46.0371 28.3178 47.1243 31.6579 47.1243C35.5999 47.1243 39.5258 45.6093 42.5004 42.6349C48.4793 36.656 48.4793 26.9277 42.5004 20.9489ZM33.415 18.1766L33.2152 19.4115C33.1809 19.6242 33.0717 19.8183 32.9079 19.9581L31.0993 21.5025L29.919 18.174C31.0794 18.0272 32.2549 18.0281 33.415 18.1766ZM20.3649 32.0466L20.1317 32.5032L18.0373 30.0349C18.4123 27.1146 19.7243 24.3013 21.9456 22.0801C22.4864 21.5393 23.0619 21.0541 23.6642 20.6226C23.7599 20.7545 23.8193 20.9097 23.8339 21.0772C23.8554 21.3268 23.7762 21.568 23.6107 21.7562L22.381 23.1557C22.0518 23.5303 21.9099 24.0272 21.9916 24.5192C22.0733 25.0112 22.3682 25.4356 22.8008 25.6836L23.4645 26.0643C23.8796 26.3023 24.3772 26.3491 24.8295 26.1925C25.2817 26.0358 25.6438 25.6913 25.8227 25.2472L25.9164 25.0145C25.9204 25.0047 25.9277 24.9864 25.9574 24.9809C25.9872 24.9751 26.0005 24.9897 26.0077 24.9974L27.1663 26.2354C27.1856 26.256 27.1863 26.2876 27.1678 26.309L23.0908 31.0203C23.0813 31.0313 23.0681 31.038 23.0536 31.0392L21.7036 31.1499C21.128 31.197 20.6276 31.5322 20.3649 32.0466ZM26.4399 44.4941V41.1056C26.4399 40.8934 26.3556 40.6899 26.2056 40.54L24.1804 38.5148L25.5544 36.4979C25.5711 36.4735 25.6039 36.4666 25.6291 36.4821L29.3636 38.8018C29.7594 39.0476 29.9056 39.5497 29.7036 39.9695L27.3618 44.8351C27.0516 44.7328 26.744 44.6193 26.4399 44.4941ZM28.9367 45.2518L31.1451 40.6633C31.7024 39.5054 31.2995 38.1209 30.2078 37.4428L26.4733 35.1231C25.966 34.8081 25.3564 34.7996 24.8585 35.0495L21.4065 33.5241L21.7895 32.7741C21.7981 32.7573 21.8151 32.7458 21.8339 32.7443L23.184 32.6336C23.6185 32.5979 24.0149 32.3968 24.3003 32.0671L28.3774 27.3558C28.933 26.7137 28.9145 25.762 28.3343 25.142L27.1757 23.9041C26.7875 23.4892 26.2221 23.304 25.6636 23.4081C25.1052 23.5124 24.6449 23.8894 24.4324 24.4165L24.3388 24.6492C24.3362 24.6556 24.3294 24.6724 24.3057 24.6806C24.2818 24.6889 24.2661 24.6798 24.2603 24.6764L23.5965 24.2957C23.5898 24.2919 23.5739 24.2827 23.5697 24.257C23.5654 24.2313 23.5775 24.2175 23.5827 24.2117L24.8124 22.8122C25.2687 22.293 25.4871 21.6279 25.4276 20.9393C25.3907 20.5121 25.2497 20.1122 25.0195 19.7667C26.0717 19.1865 27.1845 18.7545 28.3268 18.4709L29.7685 22.5364C29.9045 22.92 30.2203 23.2118 30.6134 23.3169C30.7189 23.3452 30.8263 23.3591 30.9331 23.3591C31.2238 23.3591 31.509 23.2564 31.7353 23.0631L33.9468 21.1745C34.3986 20.7887 34.6996 20.2531 34.7945 19.6667L34.9879 18.4709C36.5496 18.8586 38.0558 19.5237 39.4277 20.4658L38.4102 21.9509C38.1605 22.3153 38.2535 22.8132 38.618 23.0629C38.7562 23.1576 38.9136 23.2029 39.0693 23.2029C39.3244 23.2029 39.575 23.0813 39.73 22.8551L40.6934 21.449C40.9238 21.6506 41.1496 21.8602 41.3692 22.0798C41.5483 22.2592 41.7213 22.4428 41.8893 22.6299L37.4546 25.0009C36.9478 25.2719 36.6222 25.7759 36.5837 26.3492L36.5033 27.5437L35.9189 28.5588C35.6985 28.9417 35.8301 29.4307 36.213 29.6511C36.2977 29.7 36.3877 29.7301 36.4787 29.7454C36.0482 29.9501 35.6841 30.2738 35.4278 30.6865L34.1976 32.6673C33.7363 33.4099 33.6969 34.3548 34.0947 35.1334L35.045 36.9935C35.3746 37.6387 36.0761 37.9919 36.7907 37.8731L38.2835 37.6243C38.2893 37.6233 38.3068 37.6205 38.3255 37.6345C38.3444 37.6486 38.3465 37.6662 38.3472 37.6721L39.0343 43.3782C36.0091 45.3061 32.375 45.9463 28.9367 45.2518ZM37.7911 28.5134L39.7484 28.2068C39.9618 28.1735 40.1804 28.217 40.3644 28.3297L41.9758 29.3158L42.3474 30.3413L40.4009 30.1856C40.3856 30.1843 40.3714 30.1766 40.3619 30.1645L40.0823 29.8033C39.6775 29.2807 39.0024 29.0491 38.3622 29.2136L37.1841 29.5161C37.2298 29.4692 37.271 29.4166 37.3053 29.3572L37.7911 28.5134ZM41.3692 41.5036C41.0932 41.7795 40.8077 42.0406 40.5145 42.2884L39.9356 37.4809C39.8818 37.0344 39.6445 36.6237 39.2847 36.3541C38.9248 36.0846 38.4642 35.9724 38.0205 36.0463L36.5277 36.2952C36.5039 36.2991 36.4807 36.2874 36.4697 36.2659L35.5193 34.4056C35.3751 34.1234 35.3894 33.7808 35.5566 33.5115L36.7868 31.5308C36.9112 31.3306 37.1053 31.1882 37.3335 31.1295L38.76 30.7632C38.7814 30.7576 38.8039 30.7655 38.8173 30.7829L39.097 31.144C39.3814 31.5115 39.8103 31.7435 40.2735 31.7805L43.05 32.0027L44.9706 35.1889C44.3706 37.5577 43.1423 39.7304 41.3692 41.5036ZM44.2483 30.8916L43.6362 29.2022L43.9431 29.0627C44.3453 28.8799 44.5231 28.4057 44.3403 28.0035C44.1576 27.6013 43.6833 27.4235 43.2811 27.6063L42.6879 27.8759L41.1992 26.965C40.6918 26.6545 40.0885 26.5343 39.5008 26.6263L38.1542 26.8372L38.1798 26.4568C38.1811 26.4377 38.192 26.4209 38.2087 26.412L42.9036 23.9018C44.5206 26.1963 45.3919 28.9273 45.3919 31.792C45.3919 32.108 45.3806 32.4224 45.3595 32.7349L44.2483 30.8916Z" fill="#00FF6E"/>
<defs>
<filter id="filter0_f_6_106" x="0.39209" y="0.503906" width="62.6078" height="62.6078" filterUnits="userSpaceOnUse" color-interpolation-filters="sRGB">
<feFlood flood-opacity="0" result="BackgroundImageFix"/>
<feBlend mode="normal" in="SourceGraphic" in2="BackgroundImageFix" result="shape"/>
<feGaussianBlur stdDeviation="2" result="effect1_foregroundBlur_6_106"/>
</filter>
</defs>
</svg>
