<svg width="40" height="40" viewBox="0 0 40 40" fill="none" xmlns="http://www.w3.org/2000/svg">
<g filter="url(#filter0_b_17_4491)">
<rect width="40" height="40" fill="url(#paint0_linear_17_4491)" fill-opacity="0.2"/>
<path fill-rule="evenodd" clip-rule="evenodd" d="M20.0016 11.6665C17.7388 11.6665 17.4556 11.6763 16.5667 11.7153C15.6811 11.7544 15.0723 11.8977 14.5449 12.1028C13.9946 12.3177 13.529 12.6009 13.0667 13.0665C12.6011 13.5288 12.3179 13.9944 12.103 14.5414C11.8979 15.0721 11.7546 15.6777 11.7155 16.5633C11.6765 17.4554 11.6667 17.7387 11.6667 20.0015C11.6667 22.2643 11.6765 22.5475 11.7155 23.4364C11.7546 24.322 11.8979 24.9308 12.103 25.4583C12.3179 26.0085 12.6011 26.4741 13.0667 26.9364C13.529 27.3987 13.9946 27.6853 14.5416 27.8969C15.0723 28.102 15.6779 28.2453 16.5635 28.2843C17.4523 28.3234 17.7356 28.3332 19.9984 28.3332C22.2612 28.3332 22.5445 28.3234 23.4333 28.2843C24.3189 28.2453 24.9277 28.102 25.4552 27.8969C26.0022 27.6853 26.4678 27.3987 26.9301 26.9364C27.3924 26.4741 27.6789 26.0085 27.8906 25.4615C28.0957 24.9308 28.2389 24.3252 28.278 23.4396C28.3171 22.5508 28.3268 22.2675 28.3268 20.0047C28.3268 17.7419 28.3171 17.4587 28.278 16.5698C28.2389 15.6842 28.0957 15.0754 27.8906 14.5479C27.6854 13.9944 27.4022 13.5288 26.9366 13.0665C26.4743 12.6042 26.0087 12.3177 25.4617 12.106C24.931 11.9009 24.3254 11.7577 23.4398 11.7186C22.5477 11.6763 22.2645 11.6665 20.0016 11.6665ZM20.0016 15.72C17.6379 15.72 15.7202 17.6377 15.7202 20.0015C15.7202 22.3652 17.6379 24.2829 20.0016 24.2829C22.3654 24.2829 24.2831 22.3652 24.2831 20.0015C24.2831 17.6377 22.3654 15.72 20.0016 15.72ZM20.0016 22.7787C18.4681 22.7787 17.2244 21.535 17.2244 20.0015C17.2244 18.468 18.4681 17.2242 20.0016 17.2242C21.5351 17.2242 22.7789 18.468 22.7789 20.0015C22.7789 21.535 21.5351 22.7787 20.0016 22.7787ZM24.4524 16.5503C25.0027 16.5503 25.452 16.1042 25.452 15.5507C25.452 15.0005 25.0027 14.5512 24.4524 14.5512C23.9022 14.5512 23.4529 14.9972 23.4529 15.5507C23.4529 16.101 23.8989 16.5503 24.4524 16.5503Z" fill="white"/>
<rect x="1" y="1" width="38" height="38" stroke="url(#paint1_linear_17_4491)" stroke-opacity="0.4" stroke-width="2"/>
</g>
<defs>
<filter id="filter0_b_17_4491" x="-14" y="-14" width="68" height="68" filterUnits="userSpaceOnUse" color-interpolation-filters="sRGB">
<feFlood flood-opacity="0" result="BackgroundImageFix"/>
<feGaussianBlur in="BackgroundImage" stdDeviation="7"/>
<feComposite in2="SourceAlpha" operator="in" result="effect1_backgroundBlur_17_4491"/>
<feBlend mode="normal" in="SourceGraphic" in2="effect1_backgroundBlur_17_4491" result="shape"/>
</filter>
<linearGradient id="paint0_linear_17_4491" x1="-0.583333" y1="20" x2="40" y2="20" gradientUnits="userSpaceOnUse">
<stop stop-color="white"/>
<stop offset="1" stop-color="white" stop-opacity="0.24"/>
</linearGradient>
<linearGradient id="paint1_linear_17_4491" x1="0" y1="0" x2="40" y2="40" gradientUnits="userSpaceOnUse">
<stop stop-color="white" stop-opacity="0"/>
<stop offset="1" stop-color="white"/>
</linearGradient>
</defs>
</svg>
