<svg width="57" height="57" viewBox="0 0 57 57" fill="none" xmlns="http://www.w3.org/2000/svg">
<g filter="url(#filter0_f_6_112)">
<path d="M47.2046 4.44116C44.3135 4.44116 41.9623 6.79236 41.9623 9.68351C41.9623 10.5878 42.1921 11.4388 42.5966 12.1824L34.0088 20.7702C32.8249 19.8484 31.343 19.2945 29.7301 19.2945C28.1172 19.2945 26.6354 19.8484 25.4506 20.7693L18.75 14.0687C19.0576 13.5489 19.2454 12.9512 19.2454 12.3047C19.2454 10.3773 17.678 8.80979 15.7505 8.80979C13.8231 8.80979 12.2556 10.3773 12.2556 12.3047C12.2556 14.2321 13.8231 15.7996 15.7505 15.7996C16.3971 15.7996 16.9947 15.6117 17.5146 15.3042L24.2152 22.0048C23.2943 23.1896 22.7403 24.6714 22.7403 26.2843C22.7403 27.8972 23.2943 29.379 24.2152 30.5629L13.1503 41.6287C12.2189 40.7838 10.9878 40.2639 9.63444 40.2639C6.74328 40.2639 4.39209 42.6151 4.39209 45.5063C4.39209 48.3974 6.74328 50.7486 9.63444 50.7486C12.5256 50.7486 14.8768 48.3974 14.8768 45.5063C14.8768 44.6019 14.647 43.7509 14.2425 43.0074L25.4515 31.7984C26.4178 32.5498 27.5834 33.053 28.8573 33.2129V42.09C26.382 42.5076 24.4886 44.6605 24.4886 47.2537C24.4886 50.1449 26.8398 52.4961 29.731 52.4961C32.6222 52.4961 34.9734 50.1449 34.9734 47.2537C34.9734 44.6614 33.08 42.5085 30.6047 42.09V33.2129C31.8786 33.053 33.0442 32.5498 34.0105 31.7984L40.7111 38.499C40.4027 39.0197 40.2148 39.6173 40.2148 40.2639C40.2148 42.1913 41.7823 43.7588 43.7097 43.7588C45.6372 43.7588 47.2046 42.1913 47.2046 40.2639C47.2046 38.3365 45.6372 36.769 43.7097 36.769C43.0632 36.769 42.4655 36.9569 41.9457 37.2644L35.2451 30.5638C36.166 29.379 36.7199 27.8972 36.7199 26.2843C36.7199 24.6714 36.166 23.1896 35.2451 22.0057L43.6896 13.5611C44.6202 14.406 45.8512 14.9259 47.2046 14.9259C50.0958 14.9259 52.447 12.5747 52.447 9.68351C52.447 6.79236 50.0958 4.44116 47.2046 4.44116ZM14.0031 12.3047C14.0031 11.341 14.7868 10.5572 15.7505 10.5572C16.7142 10.5572 17.498 11.341 17.498 12.3047C17.498 13.2684 16.7142 14.0521 15.7505 14.0521C14.7868 14.0521 14.0031 13.2684 14.0031 12.3047ZM9.63444 49.0012C7.707 49.0012 6.13954 47.4337 6.13954 45.5063C6.13954 43.5788 7.707 42.0114 9.63444 42.0114C11.5619 42.0114 13.1293 43.5788 13.1293 45.5063C13.1293 47.4337 11.5619 49.0012 9.63444 49.0012ZM33.225 47.2537C33.225 49.1811 31.6576 50.7486 29.7301 50.7486C27.8027 50.7486 26.2352 49.1811 26.2352 47.2537C26.2352 45.3263 27.8027 43.7588 29.7301 43.7588C31.6576 43.7588 33.225 45.3263 33.225 47.2537ZM29.7301 31.5266C26.839 31.5266 24.4878 29.1755 24.4878 26.2843C24.4878 23.3931 26.839 21.0419 29.7301 21.0419C32.6213 21.0419 34.9725 23.3931 34.9725 26.2843C34.9725 29.1755 32.6213 31.5266 29.7301 31.5266ZM45.4572 40.2639C45.4572 41.2276 44.6735 42.0114 43.7097 42.0114C42.746 42.0114 41.9623 41.2276 41.9623 40.2639C41.9623 39.3002 42.746 38.5165 43.7097 38.5165C44.6735 38.5165 45.4572 39.3002 45.4572 40.2639ZM47.2046 13.1784C45.2772 13.1784 43.7097 11.611 43.7097 9.68351C43.7097 7.75608 45.2772 6.18861 47.2046 6.18861C49.1321 6.18861 50.6995 7.75608 50.6995 9.68351C50.6995 11.611 49.1321 13.1784 47.2046 13.1784Z" fill="#00FF6E"/>
</g>
<path d="M47.2046 4.44116C44.3135 4.44116 41.9623 6.79236 41.9623 9.68351C41.9623 10.5878 42.1921 11.4388 42.5966 12.1824L34.0088 20.7702C32.8249 19.8484 31.343 19.2945 29.7301 19.2945C28.1172 19.2945 26.6354 19.8484 25.4506 20.7693L18.75 14.0687C19.0576 13.5489 19.2454 12.9512 19.2454 12.3047C19.2454 10.3773 17.678 8.80979 15.7505 8.80979C13.8231 8.80979 12.2556 10.3773 12.2556 12.3047C12.2556 14.2321 13.8231 15.7996 15.7505 15.7996C16.3971 15.7996 16.9947 15.6117 17.5146 15.3042L24.2152 22.0048C23.2943 23.1896 22.7403 24.6714 22.7403 26.2843C22.7403 27.8972 23.2943 29.379 24.2152 30.5629L13.1503 41.6287C12.2189 40.7838 10.9878 40.2639 9.63444 40.2639C6.74328 40.2639 4.39209 42.6151 4.39209 45.5063C4.39209 48.3974 6.74328 50.7486 9.63444 50.7486C12.5256 50.7486 14.8768 48.3974 14.8768 45.5063C14.8768 44.6019 14.647 43.7509 14.2425 43.0074L25.4515 31.7984C26.4178 32.5498 27.5834 33.053 28.8573 33.2129V42.09C26.382 42.5076 24.4886 44.6605 24.4886 47.2537C24.4886 50.1449 26.8398 52.4961 29.731 52.4961C32.6222 52.4961 34.9734 50.1449 34.9734 47.2537C34.9734 44.6614 33.08 42.5085 30.6047 42.09V33.2129C31.8786 33.053 33.0442 32.5498 34.0105 31.7984L40.7111 38.499C40.4027 39.0197 40.2148 39.6173 40.2148 40.2639C40.2148 42.1913 41.7823 43.7588 43.7097 43.7588C45.6372 43.7588 47.2046 42.1913 47.2046 40.2639C47.2046 38.3365 45.6372 36.769 43.7097 36.769C43.0632 36.769 42.4655 36.9569 41.9457 37.2644L35.2451 30.5638C36.166 29.379 36.7199 27.8972 36.7199 26.2843C36.7199 24.6714 36.166 23.1896 35.2451 22.0057L43.6896 13.5611C44.6202 14.406 45.8512 14.9259 47.2046 14.9259C50.0958 14.9259 52.447 12.5747 52.447 9.68351C52.447 6.79236 50.0958 4.44116 47.2046 4.44116ZM14.0031 12.3047C14.0031 11.341 14.7868 10.5572 15.7505 10.5572C16.7142 10.5572 17.498 11.341 17.498 12.3047C17.498 13.2684 16.7142 14.0521 15.7505 14.0521C14.7868 14.0521 14.0031 13.2684 14.0031 12.3047ZM9.63444 49.0012C7.707 49.0012 6.13954 47.4337 6.13954 45.5063C6.13954 43.5788 7.707 42.0114 9.63444 42.0114C11.5619 42.0114 13.1293 43.5788 13.1293 45.5063C13.1293 47.4337 11.5619 49.0012 9.63444 49.0012ZM33.225 47.2537C33.225 49.1811 31.6576 50.7486 29.7301 50.7486C27.8027 50.7486 26.2352 49.1811 26.2352 47.2537C26.2352 45.3263 27.8027 43.7588 29.7301 43.7588C31.6576 43.7588 33.225 45.3263 33.225 47.2537ZM29.7301 31.5266C26.839 31.5266 24.4878 29.1755 24.4878 26.2843C24.4878 23.3931 26.839 21.0419 29.7301 21.0419C32.6213 21.0419 34.9725 23.3931 34.9725 26.2843C34.9725 29.1755 32.6213 31.5266 29.7301 31.5266ZM45.4572 40.2639C45.4572 41.2276 44.6735 42.0114 43.7097 42.0114C42.746 42.0114 41.9623 41.2276 41.9623 40.2639C41.9623 39.3002 42.746 38.5165 43.7097 38.5165C44.6735 38.5165 45.4572 39.3002 45.4572 40.2639ZM47.2046 13.1784C45.2772 13.1784 43.7097 11.611 43.7097 9.68351C43.7097 7.75608 45.2772 6.18861 47.2046 6.18861C49.1321 6.18861 50.6995 7.75608 50.6995 9.68351C50.6995 11.611 49.1321 13.1784 47.2046 13.1784Z" fill="#00FF6E"/>
<defs>
<filter id="filter0_f_6_112" x="0.39209" y="0.441162" width="56.0549" height="56.0549" filterUnits="userSpaceOnUse" color-interpolation-filters="sRGB">
<feFlood flood-opacity="0" result="BackgroundImageFix"/>
<feBlend mode="normal" in="SourceGraphic" in2="BackgroundImageFix" result="shape"/>
<feGaussianBlur stdDeviation="2" result="effect1_foregroundBlur_6_112"/>
</filter>
</defs>
</svg>
