<svg width="20" height="22" viewBox="0 0 20 22" fill="none" xmlns="http://www.w3.org/2000/svg">
<path d="M0.883002 22C0.39532 22 0 21.6153 0 21.1406C0 16.8285 3.60464 13.3203 8.03532 13.3203H9.35982C10.2665 13.3203 11.1569 13.4664 12.006 13.7545C12.4665 13.9107 12.7097 14.4008 12.5491 14.8489C12.3886 15.297 11.8851 15.5337 11.4247 15.3774C10.7628 15.1529 10.0681 15.0391 9.35982 15.0391H8.03532C4.57841 15.0391 1.766 17.7762 1.766 21.1406C1.766 21.6153 1.37068 22 0.883002 22ZM14.5695 5.80078C14.5695 2.60223 11.8958 0 8.60927 0C5.32278 0 2.64901 2.60223 2.64901 5.80078C2.64901 8.99933 5.32278 11.6016 8.60927 11.6016C11.8958 11.6016 14.5695 8.99933 14.5695 5.80078ZM12.8035 5.80078C12.8035 8.05161 10.922 9.88281 8.60927 9.88281C6.29656 9.88281 4.41501 8.05161 4.41501 5.80078C4.41501 3.54995 6.29656 1.71875 8.60927 1.71875C10.922 1.71875 12.8035 3.54995 12.8035 5.80078ZM19.117 16.8438H16.468V14.2656C16.468 13.791 16.0727 13.4063 15.585 13.4063C15.0973 13.4063 14.702 13.791 14.702 14.2656V16.8438H12.053C11.5653 16.8438 11.17 17.2285 11.17 17.7031C11.17 18.1778 11.5653 18.5625 12.053 18.5625H14.702V21.1406C14.702 21.6153 15.0973 22 15.585 22C16.0727 22 16.468 21.6153 16.468 21.1406V18.5625H19.117C19.6047 18.5625 20 18.1778 20 17.7031C20 17.2285 19.6047 16.8438 19.117 16.8438Z" fill="white"/>
</svg>
