<svg width="23" height="23" viewBox="0 0 23 23" fill="none" xmlns="http://www.w3.org/2000/svg">
<path d="M20.1721 22.4894C19.9514 22.4809 19.7335 22.4426 19.5264 22.3738C19.3849 22.3264 16.5304 21.3741 15.0325 20.8743C14.1188 20.5695 13.4906 19.7091 13.4906 18.7409V17.2414C13.4892 17.1421 13.5075 17.0434 13.5446 16.9512C13.5816 16.859 13.6366 16.7751 13.7064 16.7044C13.7761 16.6336 13.8592 16.5775 13.9509 16.5391C14.0426 16.5008 14.1409 16.481 14.2403 16.481C14.3396 16.481 14.438 16.5008 14.5297 16.5391C14.6213 16.5775 14.7044 16.6336 14.7742 16.7044C14.844 16.7751 14.899 16.859 14.936 16.9512C14.9731 17.0434 14.9914 17.1421 14.99 17.2414V18.7409C14.99 19.0654 15.1943 19.3467 15.5069 19.451C17.0049 19.9509 19.8648 20.9051 20.0008 20.9505C20.0725 20.9731 20.1458 20.9877 20.219 20.99C20.6496 21.0042 20.9892 20.674 20.9892 20.2403V18.7409C20.9878 18.6415 21.0062 18.5429 21.0432 18.4507C21.0803 18.3585 21.1353 18.2746 21.205 18.2038C21.2748 18.1331 21.3579 18.0769 21.4496 18.0385C21.5412 18.0002 21.6396 17.9805 21.7389 17.9805C21.8383 17.9805 21.9367 18.0002 22.0283 18.0385C22.12 18.0769 22.2031 18.1331 22.2729 18.2038C22.3426 18.2746 22.3976 18.3585 22.4347 18.4507C22.4717 18.5429 22.4901 18.6415 22.4887 18.7409V20.2403C22.4887 21.4985 21.4326 22.5299 20.1721 22.4894ZM8.4197 17.9721C8.01479 17.9963 7.60951 17.9075 7.24973 17.7276C6.53017 17.3678 5.99337 16.6445 5.99337 15.7405V14.9879H2.24769C1.01419 14.9879 0 13.9737 0 12.7402V9.74714C0 8.51363 1.01419 7.49359 2.24769 7.49359H5.99337V6.7468C5.99337 4.9388 8.14473 3.86383 9.59114 4.94864L15.5904 9.44843C16.1391 9.85995 16.467 10.4977 16.4865 11.1807C16.5073 11.9091 16.1735 12.603 15.5904 13.0403L9.59114 17.5387C9.22953 17.8099 8.82461 17.9479 8.4197 17.9721V17.9721ZM8.2806 16.5137C8.41829 16.4991 8.56112 16.4442 8.69499 16.3438L14.6942 11.844C14.8885 11.6984 14.9999 11.4676 14.9929 11.2246C14.9864 10.9948 14.8762 10.7798 14.6942 10.6433L8.69499 6.14351C8.1595 5.74191 7.4928 6.07754 7.4928 6.7468V8.2477C7.49201 8.44654 7.41227 8.63691 7.27113 8.77696C7.12998 8.917 6.93899 8.99525 6.74016 8.9945H2.24769C1.82445 8.9945 1.49944 9.32389 1.49944 9.74714V12.7402C1.49944 13.1634 1.82445 13.4884 2.24769 13.4884H6.74016C6.8391 13.488 6.93714 13.5073 7.02863 13.5449C7.12011 13.5826 7.20323 13.6381 7.2732 13.708C7.34317 13.778 7.39859 13.8611 7.43628 13.9526C7.47397 14.0441 7.49318 14.1421 7.4928 14.2411V15.7405C7.4928 16.2425 7.86752 16.5573 8.2806 16.5137V16.5137ZM21.7272 16.5019C21.5286 16.4988 21.3394 16.4171 21.201 16.2746C21.0627 16.1321 20.9865 15.9406 20.9892 15.742V2.24702C20.9892 1.71207 20.5089 1.3673 20.0008 1.53683C18.5028 2.03665 17.0049 2.53646 15.5069 3.03627C15.1952 3.14027 14.99 3.42331 14.99 3.74792V5.2459C14.9914 5.34524 14.9731 5.44388 14.936 5.53607C14.899 5.62826 14.844 5.71217 14.7742 5.78292C14.7044 5.85367 14.6213 5.90985 14.5297 5.9482C14.438 5.98655 14.3396 6.00629 14.2403 6.00629C14.1409 6.00629 14.0426 5.98655 13.9509 5.9482C13.8592 5.90985 13.7761 5.85367 13.7064 5.78292C13.6366 5.71217 13.5816 5.62826 13.5446 5.53607C13.5075 5.44388 13.4892 5.34524 13.4906 5.2459V3.74792C13.4906 2.77969 14.1177 1.91818 15.0325 1.61298L19.5264 0.113538C20.962 -0.365451 22.4887 0.732948 22.4887 2.24702V15.742C22.49 15.8423 22.4713 15.9418 22.4335 16.0348C22.3957 16.1277 22.3396 16.2121 22.2686 16.2829C22.1976 16.3538 22.1131 16.4097 22.0201 16.4473C21.9271 16.4849 21.8275 16.5035 21.7272 16.5019V16.5019Z" fill="white"/>
</svg>
