<svg width="40" height="40" viewBox="0 0 40 40" fill="none" xmlns="http://www.w3.org/2000/svg">
<g filter="url(#filter0_b_17_4497)">
<rect width="40" height="40" fill="url(#paint0_linear_17_4497)" fill-opacity="0.2"/>
<path d="M27.4603 24.0734C24.7991 22.7847 24.375 20.7952 24.3561 20.6476C24.3332 20.4688 24.3073 20.3283 24.5045 20.1465C24.6946 19.9708 25.538 19.4486 25.7721 19.2852C26.1589 19.0147 26.3292 18.7445 26.2037 18.4125C26.1159 18.1828 25.902 18.0963 25.6768 18.0963C25.6057 18.0965 25.5349 18.1045 25.4656 18.12C25.0406 18.2122 24.6279 18.4252 24.389 18.4828C24.3603 18.4902 24.3308 18.4942 24.3012 18.4946C24.1739 18.4946 24.1256 18.438 24.1379 18.2847C24.1677 17.82 24.2309 16.9131 24.1576 16.0659C24.0571 14.9002 23.6812 14.3227 23.2356 13.8119C23.02 13.5642 22.0189 12.5 20.087 12.5C18.1551 12.5 17.1553 13.5642 16.9411 13.8088C16.4941 14.3196 16.1187 14.8972 16.019 16.0628C15.9457 16.91 16.0116 17.8165 16.0388 18.2816C16.0476 18.4274 16.0028 18.4916 15.8755 18.4916C15.8458 18.4911 15.8164 18.4871 15.7876 18.4797C15.5492 18.4222 15.1365 18.2092 14.7115 18.1169C14.6422 18.1014 14.5713 18.0934 14.5003 18.0932C14.2742 18.0932 14.0612 18.1811 13.9734 18.4094C13.8478 18.7415 14.0173 19.0116 14.4055 19.2821C14.6395 19.4455 15.4829 19.9673 15.673 20.1434C15.8698 20.3252 15.8443 20.4658 15.8215 20.6445C15.8026 20.7943 15.378 22.7839 12.7172 24.0703C12.5614 24.1458 12.2962 24.3057 12.7638 24.5639C13.4979 24.9698 13.9866 24.9263 14.3664 25.1709C14.6887 25.3787 14.4981 25.8266 14.7326 25.9883C15.0206 26.1872 15.8719 25.9742 16.9718 26.3374C17.8939 26.6414 18.4541 27.5 20.0892 27.5C21.7243 27.5 22.3008 26.6374 23.2066 26.3374C24.3043 25.9742 25.1574 26.1872 25.4458 25.9883C25.6799 25.8266 25.4897 25.3787 25.812 25.1709C26.1918 24.9263 26.6801 24.9698 27.4146 24.5639C27.8814 24.3088 27.6162 24.1489 27.4603 24.0734Z" fill="white"/>
<rect x="1" y="1" width="38" height="38" stroke="url(#paint1_linear_17_4497)" stroke-opacity="0.4" stroke-width="2"/>
</g>
<defs>
<filter id="filter0_b_17_4497" x="-14" y="-14" width="68" height="68" filterUnits="userSpaceOnUse" color-interpolation-filters="sRGB">
<feFlood flood-opacity="0" result="BackgroundImageFix"/>
<feGaussianBlur in="BackgroundImage" stdDeviation="7"/>
<feComposite in2="SourceAlpha" operator="in" result="effect1_backgroundBlur_17_4497"/>
<feBlend mode="normal" in="SourceGraphic" in2="effect1_backgroundBlur_17_4497" result="shape"/>
</filter>
<linearGradient id="paint0_linear_17_4497" x1="-0.583333" y1="20" x2="40" y2="20" gradientUnits="userSpaceOnUse">
<stop stop-color="white"/>
<stop offset="1" stop-color="white" stop-opacity="0.24"/>
</linearGradient>
<linearGradient id="paint1_linear_17_4497" x1="0" y1="0" x2="40" y2="40" gradientUnits="userSpaceOnUse">
<stop stop-color="white" stop-opacity="0"/>
<stop offset="1" stop-color="white"/>
</linearGradient>
</defs>
</svg>
