<svg width="57" height="56" viewBox="0 0 57 56" fill="none" xmlns="http://www.w3.org/2000/svg">
<g filter="url(#filter0_f_6_103)">
<path d="M51.3508 50.32H5.40785V36.1066C6.73809 37.0132 8.27425 37.4613 9.80665 37.4613C11.9663 37.4613 14.118 36.572 15.6719 34.8255L17.4741 32.8C17.8944 33.4763 18.3268 34.161 18.7803 34.8385C20.6695 37.6609 23.0344 40.8006 26.2522 42.6887C27.5801 43.4679 29.0565 44.0248 30.6363 44.3578C30.6317 44.3908 30.6284 44.4242 30.6284 44.4584V48.2932C30.6284 48.6863 30.9435 49.0048 31.3324 49.0048C31.7212 49.0048 32.0363 48.6863 32.0363 48.2932V44.5912C32.7596 44.6803 33.5004 44.7257 34.2555 44.7257C35.8816 44.7257 37.5729 44.518 39.2908 44.0988C39.2911 44.0987 39.2913 44.0987 39.2916 44.0986C39.4106 44.0695 39.514 44.0205 39.5975 43.9763C39.7738 43.9941 39.9571 43.9446 40.1065 43.8237C40.4099 43.5782 40.4592 43.1304 40.2162 42.8235C40.0501 42.6139 39.6696 42.3179 38.9882 42.6918C38.9691 42.7022 38.9505 42.713 38.932 42.7221C34.4525 43.8092 30.2014 43.3606 26.9591 41.458C23.9868 39.7139 21.7462 36.7301 19.9464 34.041C19.4284 33.267 18.9337 32.4768 18.4532 31.6996L26.4599 22.701C27.5403 21.4868 29.0331 20.7548 30.6291 20.6352C30.629 20.6397 30.6284 20.644 30.6284 20.6486V23.9141C30.6284 24.3071 30.9435 24.6256 31.3324 24.6256C31.7212 24.6256 32.0363 24.3071 32.0363 23.9141V20.6915C33.5445 20.9257 34.9234 21.7112 35.9036 22.9196L41.0334 29.2449C42.3909 30.9186 44.3942 31.8467 46.5376 31.7977C48.6781 31.7464 50.6383 30.7208 51.9157 28.984C52.1477 28.6686 52.0827 28.2229 51.7708 27.9884C51.4586 27.7537 51.0178 27.8197 50.7859 28.1349C49.7689 29.5177 48.2083 30.3342 46.5043 30.375C44.8039 30.4181 43.2029 29.6751 42.1222 28.3426L36.9923 22.0173C35.5794 20.2753 33.4914 19.2466 31.2635 19.195C29.0345 19.1461 26.9033 20.0746 25.4132 21.7493L17.6774 30.4435C16.5858 28.6826 15.4333 26.8938 14.0078 25.257C13.6278 24.8208 13.2104 24.3959 12.7667 23.994C12.4773 23.7317 12.0322 23.7565 11.7727 24.049C11.5132 24.3417 11.5376 24.7915 11.827 25.0538C12.2295 25.4185 12.6076 25.8033 12.951 26.1975C14.4 27.8611 15.53 29.6523 16.6978 31.5444L14.6251 33.874C12.239 36.5558 8.13844 36.7765 5.48388 34.3665C5.45966 34.3444 5.43395 34.3252 5.40776 34.3072V21.9559C6.85269 22.0732 8.39983 22.6344 9.91862 23.5979C10.0349 23.6717 10.1643 23.7069 10.2922 23.7069C10.5263 23.7069 10.7554 23.5887 10.889 23.3735C11.0957 23.0406 10.9963 22.6014 10.667 22.3925C8.91839 21.2832 7.11258 20.6464 5.40785 20.5301V5.49195C5.40785 5.09889 5.09278 4.7804 4.70393 4.7804C4.31508 4.7804 4 5.09889 4 5.49195V51.0316C4 51.4247 4.31508 51.7431 4.70393 51.7431H51.3508C51.7397 51.7431 52.0548 51.4247 52.0548 51.0316C52.0548 50.6385 51.7397 50.32 51.3508 50.32Z" fill="#00FF6E"/>
<path d="M11.3635 15.5036H16.8092C17.4562 15.5036 17.9824 14.9716 17.9824 14.3176V8.81284C17.9824 8.15896 17.4562 7.62691 16.8092 7.62691H11.3635C10.7165 7.62691 10.1902 8.15896 10.1902 8.81284V14.3176C10.1902 14.9716 10.7166 15.5036 11.3635 15.5036ZM11.5981 9.05002H16.5746V14.0805H11.5981V9.05002Z" fill="#00FF6E"/>
<path d="M21.3791 10.6605H30.3894C30.7783 10.6605 31.0933 10.342 31.0933 9.94896C31.0933 9.55589 30.7783 9.2374 30.3894 9.2374H21.3791C20.9903 9.2374 20.6752 9.55589 20.6752 9.94896C20.6752 10.342 20.9903 10.6605 21.3791 10.6605Z" fill="#00FF6E"/>
<path d="M21.3791 13.893H34.394C34.7829 13.893 35.0979 13.5745 35.0979 13.1814C35.0979 12.7884 34.7829 12.4699 34.394 12.4699H21.3791C20.9903 12.4699 20.6752 12.7884 20.6752 13.1814C20.6752 13.5745 20.9903 13.893 21.3791 13.893Z" fill="#00FF6E"/>
<path d="M51.9608 37.4631C51.7667 37.1225 51.3363 37.0058 50.9995 37.2017C50.9465 37.2325 45.6529 40.3056 41.4918 41.9082C41.1286 42.0482 40.9463 42.4593 41.0847 42.8266C41.1918 43.1105 41.459 43.2849 41.7426 43.2849C41.826 43.2849 41.9107 43.2698 41.9932 43.2382C46.2602 41.5945 51.4821 38.5631 51.7023 38.4348C52.0391 38.2387 52.1548 37.8036 51.9608 37.4631Z" fill="#00FF6E"/>
<path d="M32.0364 28.4407C32.0364 28.0476 31.7213 27.7291 31.3325 27.7291C30.9436 27.7291 30.6285 28.0476 30.6285 28.4407V32.2755C30.6285 32.6686 30.9436 32.9871 31.3325 32.9871C31.7213 32.9871 32.0364 32.6686 32.0364 32.2755V28.4407Z" fill="#00FF6E"/>
<path d="M31.3325 35.7328C30.9436 35.7328 30.6285 36.0513 30.6285 36.4444V40.2792C30.6285 40.6723 30.9436 40.9908 31.3325 40.9908C31.7213 40.9908 32.0364 40.6723 32.0364 40.2792V36.4444C32.0364 36.0513 31.7213 35.7328 31.3325 35.7328Z" fill="#00FF6E"/>
<path d="M17.3903 43.7468C17.0014 43.7468 16.6864 44.0653 16.6864 44.4583V48.2931C16.6864 48.6862 17.0014 49.0047 17.3903 49.0047C17.7791 49.0047 18.0942 48.6862 18.0942 48.2931V44.4583C18.0942 44.0653 17.7791 43.7468 17.3903 43.7468Z" fill="#00FF6E"/>
<path d="M18.0942 36.4444C18.0942 36.0513 17.7791 35.7328 17.3903 35.7328C17.0014 35.7328 16.6864 36.0513 16.6864 36.4444V40.2792C16.6864 40.6723 17.0014 40.9908 17.3903 40.9908C17.7791 40.9908 18.0942 40.6723 18.0942 40.2792V36.4444Z" fill="#00FF6E"/>
<path d="M44.5706 44.4583V48.2931C44.5706 48.6862 44.8857 49.0047 45.2745 49.0047C45.6634 49.0047 45.9785 48.6862 45.9785 48.2931V44.4583C45.9785 44.0653 45.6634 43.7468 45.2745 43.7468C44.8857 43.7468 44.5706 44.0653 44.5706 44.4583Z" fill="#00FF6E"/>
<path d="M45.9785 38.1287V33.7879C45.9785 33.3948 45.6634 33.0763 45.2745 33.0763C44.8857 33.0763 44.5706 33.3948 44.5706 33.7879V38.1287C44.5706 38.5218 44.8857 38.8403 45.2745 38.8403C45.6634 38.8403 45.9785 38.5217 45.9785 38.1287Z" fill="#00FF6E"/>
</g>
<path d="M51.3508 50.32H5.40785V36.1066C6.73809 37.0132 8.27425 37.4613 9.80665 37.4613C11.9663 37.4613 14.118 36.572 15.6719 34.8255L17.4741 32.8C17.8944 33.4763 18.3268 34.161 18.7803 34.8385C20.6695 37.6609 23.0344 40.8006 26.2522 42.6887C27.5801 43.4679 29.0565 44.0248 30.6363 44.3578C30.6317 44.3908 30.6284 44.4242 30.6284 44.4584V48.2932C30.6284 48.6863 30.9435 49.0048 31.3324 49.0048C31.7212 49.0048 32.0363 48.6863 32.0363 48.2932V44.5912C32.7596 44.6803 33.5004 44.7257 34.2555 44.7257C35.8816 44.7257 37.5729 44.518 39.2908 44.0988C39.2911 44.0987 39.2913 44.0987 39.2916 44.0986C39.4106 44.0695 39.514 44.0205 39.5975 43.9763C39.7738 43.9941 39.9571 43.9446 40.1065 43.8237C40.4099 43.5782 40.4592 43.1304 40.2162 42.8235C40.0501 42.6139 39.6696 42.3179 38.9882 42.6918C38.9691 42.7022 38.9505 42.713 38.932 42.7221C34.4525 43.8092 30.2014 43.3606 26.9591 41.458C23.9868 39.7139 21.7462 36.7301 19.9464 34.041C19.4284 33.267 18.9337 32.4768 18.4532 31.6996L26.4599 22.701C27.5403 21.4868 29.0331 20.7548 30.6291 20.6352C30.629 20.6397 30.6284 20.644 30.6284 20.6486V23.9141C30.6284 24.3071 30.9435 24.6256 31.3324 24.6256C31.7212 24.6256 32.0363 24.3071 32.0363 23.9141V20.6915C33.5445 20.9257 34.9234 21.7112 35.9036 22.9196L41.0334 29.2449C42.3909 30.9186 44.3942 31.8467 46.5376 31.7977C48.6781 31.7464 50.6383 30.7208 51.9157 28.984C52.1477 28.6686 52.0827 28.2229 51.7708 27.9884C51.4586 27.7537 51.0178 27.8197 50.7859 28.1349C49.7689 29.5177 48.2083 30.3342 46.5043 30.375C44.8039 30.4181 43.2029 29.6751 42.1222 28.3426L36.9923 22.0173C35.5794 20.2753 33.4914 19.2466 31.2635 19.195C29.0345 19.1461 26.9033 20.0746 25.4132 21.7493L17.6774 30.4435C16.5858 28.6826 15.4333 26.8938 14.0078 25.257C13.6278 24.8208 13.2104 24.3959 12.7667 23.994C12.4773 23.7317 12.0322 23.7565 11.7727 24.049C11.5132 24.3417 11.5376 24.7915 11.827 25.0538C12.2295 25.4185 12.6076 25.8033 12.951 26.1975C14.4 27.8611 15.53 29.6523 16.6978 31.5444L14.6251 33.874C12.239 36.5558 8.13844 36.7765 5.48388 34.3665C5.45966 34.3444 5.43395 34.3252 5.40776 34.3072V21.9559C6.85269 22.0732 8.39983 22.6344 9.91862 23.5979C10.0349 23.6717 10.1643 23.7069 10.2922 23.7069C10.5263 23.7069 10.7554 23.5887 10.889 23.3735C11.0957 23.0406 10.9963 22.6014 10.667 22.3925C8.91839 21.2832 7.11258 20.6464 5.40785 20.5301V5.49195C5.40785 5.09889 5.09278 4.7804 4.70393 4.7804C4.31508 4.7804 4 5.09889 4 5.49195V51.0316C4 51.4247 4.31508 51.7431 4.70393 51.7431H51.3508C51.7397 51.7431 52.0548 51.4247 52.0548 51.0316C52.0548 50.6385 51.7397 50.32 51.3508 50.32Z" fill="#00FF6E"/>
<path d="M11.3635 15.5036H16.8092C17.4562 15.5036 17.9824 14.9716 17.9824 14.3176V8.81284C17.9824 8.15896 17.4562 7.62691 16.8092 7.62691H11.3635C10.7165 7.62691 10.1902 8.15896 10.1902 8.81284V14.3176C10.1902 14.9716 10.7166 15.5036 11.3635 15.5036ZM11.5981 9.05002H16.5746V14.0805H11.5981V9.05002Z" fill="#00FF6E"/>
<path d="M21.3791 10.6605H30.3894C30.7783 10.6605 31.0933 10.342 31.0933 9.94896C31.0933 9.55589 30.7783 9.2374 30.3894 9.2374H21.3791C20.9903 9.2374 20.6752 9.55589 20.6752 9.94896C20.6752 10.342 20.9903 10.6605 21.3791 10.6605Z" fill="#00FF6E"/>
<path d="M21.3791 13.893H34.394C34.7829 13.893 35.0979 13.5745 35.0979 13.1814C35.0979 12.7884 34.7829 12.4699 34.394 12.4699H21.3791C20.9903 12.4699 20.6752 12.7884 20.6752 13.1814C20.6752 13.5745 20.9903 13.893 21.3791 13.893Z" fill="#00FF6E"/>
<path d="M51.9608 37.4631C51.7667 37.1225 51.3363 37.0058 50.9995 37.2017C50.9465 37.2325 45.6529 40.3056 41.4918 41.9082C41.1286 42.0482 40.9463 42.4593 41.0847 42.8266C41.1918 43.1105 41.459 43.2849 41.7426 43.2849C41.826 43.2849 41.9107 43.2698 41.9932 43.2382C46.2602 41.5945 51.4821 38.5631 51.7023 38.4348C52.0391 38.2387 52.1548 37.8036 51.9608 37.4631Z" fill="#00FF6E"/>
<path d="M32.0364 28.4407C32.0364 28.0476 31.7213 27.7291 31.3325 27.7291C30.9436 27.7291 30.6285 28.0476 30.6285 28.4407V32.2755C30.6285 32.6686 30.9436 32.9871 31.3325 32.9871C31.7213 32.9871 32.0364 32.6686 32.0364 32.2755V28.4407Z" fill="#00FF6E"/>
<path d="M31.3325 35.7328C30.9436 35.7328 30.6285 36.0513 30.6285 36.4444V40.2792C30.6285 40.6723 30.9436 40.9908 31.3325 40.9908C31.7213 40.9908 32.0364 40.6723 32.0364 40.2792V36.4444C32.0364 36.0513 31.7213 35.7328 31.3325 35.7328Z" fill="#00FF6E"/>
<path d="M17.3903 43.7468C17.0014 43.7468 16.6864 44.0653 16.6864 44.4583V48.2931C16.6864 48.6862 17.0014 49.0047 17.3903 49.0047C17.7791 49.0047 18.0942 48.6862 18.0942 48.2931V44.4583C18.0942 44.0653 17.7791 43.7468 17.3903 43.7468Z" fill="#00FF6E"/>
<path d="M18.0942 36.4444C18.0942 36.0513 17.7791 35.7328 17.3903 35.7328C17.0014 35.7328 16.6864 36.0513 16.6864 36.4444V40.2792C16.6864 40.6723 17.0014 40.9908 17.3903 40.9908C17.7791 40.9908 18.0942 40.6723 18.0942 40.2792V36.4444Z" fill="#00FF6E"/>
<path d="M44.5706 44.4583V48.2931C44.5706 48.6862 44.8857 49.0047 45.2745 49.0047C45.6634 49.0047 45.9785 48.6862 45.9785 48.2931V44.4583C45.9785 44.0653 45.6634 43.7468 45.2745 43.7468C44.8857 43.7468 44.5706 44.0653 44.5706 44.4583Z" fill="#00FF6E"/>
<path d="M45.9785 38.1287V33.7879C45.9785 33.3948 45.6634 33.0763 45.2745 33.0763C44.8857 33.0763 44.5706 33.3948 44.5706 33.7879V38.1287C44.5706 38.5218 44.8857 38.8403 45.2745 38.8403C45.6634 38.8403 45.9785 38.5217 45.9785 38.1287Z" fill="#00FF6E"/>
<defs>
<filter id="filter0_f_6_103" x="0" y="0.780396" width="56.0549" height="54.9628" filterUnits="userSpaceOnUse" color-interpolation-filters="sRGB">
<feFlood flood-opacity="0" result="BackgroundImageFix"/>
<feBlend mode="normal" in="SourceGraphic" in2="BackgroundImageFix" result="shape"/>
<feGaussianBlur stdDeviation="2" result="effect1_foregroundBlur_6_103"/>
</filter>
</defs>
</svg>
