<svg width="40" height="40" viewBox="0 0 40 40" fill="none" xmlns="http://www.w3.org/2000/svg">
<g filter="url(#filter0_b_17_4495)">
<rect width="40" height="40" fill="url(#paint0_linear_17_4495)" fill-opacity="0.2"/>
<path fill-rule="evenodd" clip-rule="evenodd" d="M11.1895 19.0734C15.5083 17.1918 18.3882 15.9513 19.8291 15.3519C23.9434 13.6407 24.7983 13.3434 25.3555 13.3336C25.4781 13.3314 25.7521 13.3618 25.9296 13.5058C26.0795 13.6275 26.1207 13.7917 26.1404 13.907C26.1602 14.0224 26.1847 14.285 26.1652 14.4903C25.9422 16.8328 24.9775 22.5176 24.4867 25.1414C24.2791 26.2516 23.8702 26.6238 23.4743 26.6602C22.614 26.7394 21.9607 26.0917 21.1274 25.5454C19.8235 24.6907 19.0869 24.1587 17.8212 23.3246C16.3585 22.3607 17.3067 21.8309 18.1403 20.9652C18.3585 20.7386 22.1491 17.2907 22.2225 16.978C22.2316 16.9388 22.2401 16.793 22.1535 16.716C22.0669 16.639 21.939 16.6654 21.8468 16.6863C21.716 16.716 19.633 18.0928 15.5978 20.8166C15.0066 21.2226 14.471 21.4205 13.9912 21.4101C13.4622 21.3987 12.4447 21.111 11.6883 20.8651C10.7605 20.5635 10.0231 20.4041 10.0873 19.8919C10.1208 19.6251 10.4882 19.3523 11.1895 19.0734Z" fill="white"/>
<rect x="1" y="1" width="38" height="38" stroke="url(#paint1_linear_17_4495)" stroke-opacity="0.4" stroke-width="2"/>
</g>
<defs>
<filter id="filter0_b_17_4495" x="-14" y="-14" width="68" height="68" filterUnits="userSpaceOnUse" color-interpolation-filters="sRGB">
<feFlood flood-opacity="0" result="BackgroundImageFix"/>
<feGaussianBlur in="BackgroundImage" stdDeviation="7"/>
<feComposite in2="SourceAlpha" operator="in" result="effect1_backgroundBlur_17_4495"/>
<feBlend mode="normal" in="SourceGraphic" in2="effect1_backgroundBlur_17_4495" result="shape"/>
</filter>
<linearGradient id="paint0_linear_17_4495" x1="-0.583333" y1="20" x2="40" y2="20" gradientUnits="userSpaceOnUse">
<stop stop-color="white"/>
<stop offset="1" stop-color="white" stop-opacity="0.24"/>
</linearGradient>
<linearGradient id="paint1_linear_17_4495" x1="0" y1="0" x2="40" y2="40" gradientUnits="userSpaceOnUse">
<stop stop-color="white" stop-opacity="0"/>
<stop offset="1" stop-color="white"/>
</linearGradient>
</defs>
</svg>
